ply
format ascii 1.0
comment Created by Blender 2.82 (sub 7) - www.blender.org, source file: 'sphere.blend'
element vertex 240
property float x
property float y
property float z
property float nx
property float ny
property float nz
element face 80
property list uchar uint vertex_indices
end_header
0.000000 -10.000000 0.000000 0.102381 -0.943524 0.315090
4.253227 -8.506542 3.090114 0.102381 -0.943524 0.315090
-1.624555 -8.506543 4.999952 0.102381 -0.943524 0.315090
7.236073 -4.472196 5.257253 0.700224 -0.661699 0.268032
4.253227 -8.506542 3.090114 0.700224 -0.661699 0.268032
8.506478 -5.257359 0.000000 0.700224 -0.661699 0.268032
0.000000 -10.000000 0.000000 -0.268034 -0.943523 0.194737
-1.624555 -8.506543 4.999952 -0.268034 -0.943523 0.194737
-5.257298 -8.506516 0.000000 -0.268034 -0.943523 0.194737
0.000000 -10.000000 0.000000 -0.268034 -0.943523 -0.194737
-5.257298 -8.506516 0.000000 -0.268034 -0.943523 -0.194737
-1.624555 -8.506543 -4.999952 -0.268034 -0.943523 -0.194737
0.000000 -10.000000 0.000000 0.102381 -0.943523 -0.315090
-1.624555 -8.506543 -4.999952 0.102381 -0.943523 -0.315090
4.253227 -8.506542 -3.090114 0.102381 -0.943523 -0.315090
7.236073 -4.472196 5.257253 0.904989 -0.330385 0.268031
8.506478 -5.257359 0.000000 0.904989 -0.330385 0.268031
9.510579 0.000000 3.090126 0.904989 -0.330385 0.268031
-2.763880 -4.472198 8.506492 0.024746 -0.330386 0.943521
2.628688 -5.257377 8.090117 0.024746 -0.330386 0.943521
0.000000 0.000000 10.000000 0.024746 -0.330386 0.943521
-8.944262 -4.472156 0.000000 -0.889697 -0.330385 0.315094
-6.881894 -5.257362 4.999969 -0.889697 -0.330385 0.315094
-9.510579 0.000000 3.090126 -0.889697 -0.330385 0.315094
-2.763880 -4.472198 -8.506492 -0.574602 -0.330388 -0.748784
-6.881894 -5.257362 -4.999969 -0.574602 -0.330388 -0.748784
-5.877856 0.000000 -8.090167 -0.574602 -0.330388 -0.748784
7.236073 -4.472196 -5.257253 0.534576 -0.330386 -0.777865
2.628689 -5.257377 -8.090117 0.534576 -0.330386 -0.777865
5.877856 0.000000 -8.090167 0.534576 -0.330386 -0.777865
7.236073 -4.472196 5.257253 0.802609 -0.125627 0.583126
9.510579 0.000000 3.090126 0.802609 -0.125627 0.583126
5.877856 0.000000 8.090167 0.802609 -0.125627 0.583126
-2.763880 -4.472198 8.506492 -0.306569 -0.125629 0.943521
0.000000 0.000000 10.000000 -0.306569 -0.125629 0.943521
-5.877856 0.000000 8.090167 -0.306569 -0.125629 0.943521
-8.944262 -4.472156 0.000000 -0.992077 -0.125629 0.000000
-9.510579 0.000000 3.090126 -0.992077 -0.125629 0.000000
-9.510579 0.000000 -3.090126 -0.992077 -0.125629 0.000000
-2.763880 -4.472198 -8.506492 -0.306569 -0.125629 -0.943521
-5.877856 0.000000 -8.090167 -0.306569 -0.125629 -0.943521
0.000000 0.000000 -10.000000 -0.306569 -0.125629 -0.943521
7.236073 -4.472196 -5.257253 0.802609 -0.125627 -0.583127
5.877856 0.000000 -8.090167 0.802609 -0.125627 -0.583127
9.510579 0.000000 -3.090126 0.802609 -0.125627 -0.583127
2.763880 4.472198 8.506492 0.408946 0.661699 0.628425
6.881894 5.257362 4.999969 0.408946 0.661699 0.628425
1.624555 8.506543 4.999952 0.408946 0.661699 0.628425
-7.236073 4.472196 5.257253 -0.471300 0.661699 0.583122
-2.628689 5.257377 8.090117 -0.471300 0.661699 0.583122
-4.253227 8.506542 3.090114 -0.471300 0.661699 0.583122
-7.236073 4.472196 -5.257253 -0.700224 0.661699 -0.268032
-8.506478 5.257359 0.000000 -0.700224 0.661699 -0.268032
-4.253227 8.506542 -3.090114 -0.700224 0.661699 -0.268032
2.763880 4.472198 -8.506492 0.038531 0.661699 -0.748779
-2.628688 5.257377 -8.090117 0.038531 0.661699 -0.748779
1.624555 8.506543 -4.999952 0.038531 0.661699 -0.748779
8.944262 4.472156 0.000000 0.724042 0.661695 -0.194736
6.881894 5.257362 -4.999969 0.724042 0.661695 -0.194736
5.257298 8.506516 0.000000 0.724042 0.661695 -0.194736
5.257298 8.506516 0.000000 0.268034 0.943523 -0.194737
1.624555 8.506543 -4.999952 0.268034 0.943523 -0.194737
0.000000 10.000000 0.000000 0.268034 0.943523 -0.194737
5.257298 8.506516 0.000000 0.491119 0.794658 -0.356821
6.881894 5.257362 -4.999969 0.491119 0.794658 -0.356821
1.624555 8.506543 -4.999952 0.491119 0.794658 -0.356821
6.881894 5.257362 -4.999969 0.408946 0.661699 -0.628425
2.763880 4.472198 -8.506492 0.408946 0.661699 -0.628425
1.624555 8.506543 -4.999952 0.408946 0.661699 -0.628425
1.624555 8.506543 -4.999952 -0.102381 0.943524 -0.315090
-4.253227 8.506542 -3.090114 -0.102381 0.943524 -0.315090
0.000000 10.000000 0.000000 -0.102381 0.943524 -0.315090
1.624555 8.506543 -4.999952 -0.187594 0.794658 -0.577345
-2.628688 5.257377 -8.090117 -0.187594 0.794658 -0.577345
-4.253227 8.506542 -3.090114 -0.187594 0.794658 -0.577345
-2.628688 5.257377 -8.090117 -0.471300 0.661699 -0.583122
-7.236073 4.472196 -5.257253 -0.471300 0.661699 -0.583122
-4.253227 8.506542 -3.090114 -0.471300 0.661699 -0.583122
-4.253227 8.506542 -3.090114 -0.331304 0.943524 0.000000
-4.253227 8.506542 3.090114 -0.331304 0.943524 0.000000
0.000000 10.000000 0.000000 -0.331304 0.943524 0.000000
-4.253227 8.506542 -3.090114 -0.607061 0.794656 0.000000
-8.506478 5.257359 0.000000 -0.607061 0.794656 0.000000
-4.253227 8.506542 3.090114 -0.607061 0.794656 0.000000
-8.506478 5.257359 0.000000 -0.700224 0.661699 0.268032
-7.236073 4.472196 5.257253 -0.700224 0.661699 0.268032
-4.253227 8.506542 3.090114 -0.700224 0.661699 0.268032
-4.253227 8.506542 3.090114 -0.102381 0.943523 0.315090
1.624555 8.506543 4.999952 -0.102381 0.943523 0.315090
0.000000 10.000000 0.000000 -0.102381 0.943523 0.315090
-4.253227 8.506542 3.090114 -0.187594 0.794658 0.577345
-2.628689 5.257377 8.090117 -0.187594 0.794658 0.577345
1.624555 8.506543 4.999952 -0.187594 0.794658 0.577345
-2.628689 5.257377 8.090117 0.038531 0.661699 0.748779
2.763880 4.472198 8.506492 0.038531 0.661699 0.748779
1.624555 8.506543 4.999952 0.038531 0.661699 0.748779
1.624555 8.506543 4.999952 0.268034 0.943523 0.194737
5.257298 8.506516 0.000000 0.268034 0.943523 0.194737
0.000000 10.000000 0.000000 0.268034 0.943523 0.194737
1.624555 8.506543 4.999952 0.491119 0.794658 0.356821
6.881894 5.257362 4.999969 0.491119 0.794658 0.356821
5.257298 8.506516 0.000000 0.491119 0.794658 0.356821
6.881894 5.257362 4.999969 0.724042 0.661695 0.194736
8.944262 4.472156 0.000000 0.724042 0.661695 0.194736
5.257298 8.506516 0.000000 0.724042 0.661695 0.194736
9.510579 0.000000 -3.090126 0.889697 0.330385 -0.315094
6.881894 5.257362 -4.999969 0.889697 0.330385 -0.315094
8.944262 4.472156 0.000000 0.889697 0.330385 -0.315094
9.510579 0.000000 -3.090126 0.794656 0.187595 -0.577348
5.877856 0.000000 -8.090167 0.794656 0.187595 -0.577348
6.881894 5.257362 -4.999969 0.794656 0.187595 -0.577348
5.877856 0.000000 -8.090167 0.574602 0.330388 -0.748784
2.763880 4.472198 -8.506492 0.574602 0.330388 -0.748784
6.881894 5.257362 -4.999969 0.574602 0.330388 -0.748784
0.000000 0.000000 -10.000000 -0.024746 0.330386 -0.943521
-2.628688 5.257377 -8.090117 -0.024746 0.330386 -0.943521
2.763880 4.472198 -8.506492 -0.024746 0.330386 -0.943521
0.000000 0.000000 -10.000000 -0.303531 0.187597 -0.934171
-5.877856 0.000000 -8.090167 -0.303531 0.187597 -0.934171
-2.628688 5.257377 -8.090117 -0.303531 0.187597 -0.934171
-5.877856 0.000000 -8.090167 -0.534576 0.330387 -0.777865
-7.236073 4.472196 -5.257253 -0.534576 0.330387 -0.777865
-2.628688 5.257377 -8.090117 -0.534576 0.330387 -0.777865
-9.510579 0.000000 -3.090126 -0.904989 0.330385 -0.268031
-8.506478 5.257359 0.000000 -0.904989 0.330385 -0.268031
-7.236073 4.472196 -5.257253 -0.904989 0.330385 -0.268031
-9.510579 0.000000 -3.090126 -0.982246 0.187599 0.000000
-9.510579 0.000000 3.090126 -0.982246 0.187599 0.000000
-8.506478 5.257359 0.000000 -0.982246 0.187599 0.000000
-9.510579 0.000000 3.090126 -0.904989 0.330385 0.268031
-7.236073 4.472196 5.257253 -0.904989 0.330385 0.268031
-8.506478 5.257359 0.000000 -0.904989 0.330385 0.268031
-5.877856 0.000000 8.090167 -0.534576 0.330386 0.777865
-2.628689 5.257377 8.090117 -0.534576 0.330386 0.777865
-7.236073 4.472196 5.257253 -0.534576 0.330386 0.777865
-5.877856 0.000000 8.090167 -0.303531 0.187597 0.934171
0.000000 0.000000 10.000000 -0.303531 0.187597 0.934171
-2.628689 5.257377 8.090117 -0.303531 0.187597 0.934171
0.000000 0.000000 10.000000 -0.024746 0.330386 0.943521
2.763880 4.472198 8.506492 -0.024746 0.330386 0.943521
-2.628689 5.257377 8.090117 -0.024746 0.330386 0.943521
5.877856 0.000000 8.090167 0.574602 0.330388 0.748784
6.881894 5.257362 4.999969 0.574602 0.330388 0.748784
2.763880 4.472198 8.506492 0.574602 0.330388 0.748784
5.877856 0.000000 8.090167 0.794656 0.187595 0.577348
9.510579 0.000000 3.090126 0.794656 0.187595 0.577348
6.881894 5.257362 4.999969 0.794656 0.187595 0.577348
9.510579 0.000000 3.090126 0.889697 0.330385 0.315094
8.944262 4.472156 0.000000 0.889697 0.330385 0.315094
6.881894 5.257362 4.999969 0.889697 0.330385 0.315094
5.877856 0.000000 -8.090167 0.306569 0.125629 -0.943521
0.000000 0.000000 -10.000000 0.306569 0.125629 -0.943521
2.763880 4.472198 -8.506492 0.306569 0.125629 -0.943521
5.877856 0.000000 -8.090167 0.303531 -0.187597 -0.934171
2.628689 -5.257377 -8.090117 0.303531 -0.187597 -0.934171
0.000000 0.000000 -10.000000 0.303531 -0.187597 -0.934171
2.628689 -5.257377 -8.090117 0.024746 -0.330386 -0.943521
-2.763880 -4.472198 -8.506492 0.024746 -0.330386 -0.943521
0.000000 0.000000 -10.000000 0.024746 -0.330386 -0.943521
-5.877856 0.000000 -8.090167 -0.802609 0.125627 -0.583126
-9.510579 0.000000 -3.090126 -0.802609 0.125627 -0.583126
-7.236073 4.472196 -5.257253 -0.802609 0.125627 -0.583126
-5.877856 0.000000 -8.090167 -0.794656 -0.187595 -0.577348
-6.881894 -5.257362 -4.999969 -0.794656 -0.187595 -0.577348
-9.510579 0.000000 -3.090126 -0.794656 -0.187595 -0.577348
-6.881894 -5.257362 -4.999969 -0.889697 -0.330385 -0.315094
-8.944262 -4.472156 0.000000 -0.889697 -0.330385 -0.315094
-9.510579 0.000000 -3.090126 -0.889697 -0.330385 -0.315094
-9.510579 0.000000 3.090126 -0.802609 0.125627 0.583127
-5.877856 0.000000 8.090167 -0.802609 0.125627 0.583127
-7.236073 4.472196 5.257253 -0.802609 0.125627 0.583127
-9.510579 0.000000 3.090126 -0.794656 -0.187595 0.577348
-6.881894 -5.257362 4.999969 -0.794656 -0.187595 0.577348
-5.877856 0.000000 8.090167 -0.794656 -0.187595 0.577348
-6.881894 -5.257362 4.999969 -0.574602 -0.330388 0.748784
-2.763880 -4.472198 8.506492 -0.574602 -0.330388 0.748784
-5.877856 0.000000 8.090167 -0.574602 -0.330388 0.748784
0.000000 0.000000 10.000000 0.306569 0.125629 0.943521
5.877856 0.000000 8.090167 0.306569 0.125629 0.943521
2.763880 4.472198 8.506492 0.306569 0.125629 0.943521
0.000000 0.000000 10.000000 0.303531 -0.187597 0.934171
2.628688 -5.257377 8.090117 0.303531 -0.187597 0.934171
5.877856 0.000000 8.090167 0.303531 -0.187597 0.934171
2.628688 -5.257377 8.090117 0.534576 -0.330387 0.777865
7.236073 -4.472196 5.257253 0.534576 -0.330387 0.777865
5.877856 0.000000 8.090167 0.534576 -0.330387 0.777865
9.510579 0.000000 3.090126 0.992077 0.125629 -0.000000
9.510579 0.000000 -3.090126 0.992077 0.125629 -0.000000
8.944262 4.472156 0.000000 0.992077 0.125629 -0.000000
9.510579 0.000000 3.090126 0.982246 -0.187599 0.000000
8.506478 -5.257359 0.000000 0.982246 -0.187599 0.000000
9.510579 0.000000 -3.090126 0.982246 -0.187599 0.000000
8.506478 -5.257359 0.000000 0.904989 -0.330385 -0.268031
7.236073 -4.472196 -5.257253 0.904989 -0.330385 -0.268031
9.510579 0.000000 -3.090126 0.904989 -0.330385 -0.268031
4.253227 -8.506542 -3.090114 0.471300 -0.661699 -0.583122
2.628689 -5.257377 -8.090117 0.471300 -0.661699 -0.583122
7.236073 -4.472196 -5.257253 0.471300 -0.661699 -0.583122
4.253227 -8.506542 -3.090114 0.187594 -0.794658 -0.577345
-1.624555 -8.506543 -4.999952 0.187594 -0.794658 -0.577345
2.628689 -5.257377 -8.090117 0.187594 -0.794658 -0.577345
-1.624555 -8.506543 -4.999952 -0.038531 -0.661699 -0.748779
-2.763880 -4.472198 -8.506492 -0.038531 -0.661699 -0.748779
2.628689 -5.257377 -8.090117 -0.038531 -0.661699 -0.748779
-1.624555 -8.506543 -4.999952 -0.408946 -0.661699 -0.628425
-6.881894 -5.257362 -4.999969 -0.408946 -0.661699 -0.628425
-2.763880 -4.472198 -8.506492 -0.408946 -0.661699 -0.628425
-1.624555 -8.506543 -4.999952 -0.491119 -0.794658 -0.356821
-5.257298 -8.506516 0.000000 -0.491119 -0.794658 -0.356821
-6.881894 -5.257362 -4.999969 -0.491119 -0.794658 -0.356821
-5.257298 -8.506516 0.000000 -0.724042 -0.661695 -0.194736
-8.944262 -4.472156 0.000000 -0.724042 -0.661695 -0.194736
-6.881894 -5.257362 -4.999969 -0.724042 -0.661695 -0.194736
-5.257298 -8.506516 0.000000 -0.724042 -0.661695 0.194736
-6.881894 -5.257362 4.999969 -0.724042 -0.661695 0.194736
-8.944262 -4.472156 0.000000 -0.724042 -0.661695 0.194736
-5.257298 -8.506516 0.000000 -0.491119 -0.794658 0.356821
-1.624555 -8.506543 4.999952 -0.491119 -0.794658 0.356821
-6.881894 -5.257362 4.999969 -0.491119 -0.794658 0.356821
-1.624555 -8.506543 4.999952 -0.408946 -0.661699 0.628425
-2.763880 -4.472198 8.506492 -0.408946 -0.661699 0.628425
-6.881894 -5.257362 4.999969 -0.408946 -0.661699 0.628425
8.506478 -5.257359 0.000000 0.700224 -0.661699 -0.268032
4.253227 -8.506542 -3.090114 0.700224 -0.661699 -0.268032
7.236073 -4.472196 -5.257253 0.700224 -0.661699 -0.268032
8.506478 -5.257359 0.000000 0.607061 -0.794656 0.000000
4.253227 -8.506542 3.090114 0.607061 -0.794656 0.000000
4.253227 -8.506542 -3.090114 0.607061 -0.794656 0.000000
4.253227 -8.506542 3.090114 0.331304 -0.943524 0.000000
0.000000 -10.000000 0.000000 0.331304 -0.943524 0.000000
4.253227 -8.506542 -3.090114 0.331304 -0.943524 0.000000
-1.624555 -8.506543 4.999952 -0.038531 -0.661699 0.748779
2.628688 -5.257377 8.090117 -0.038531 -0.661699 0.748779
-2.763880 -4.472198 8.506492 -0.038531 -0.661699 0.748779
-1.624555 -8.506543 4.999952 0.187594 -0.794658 0.577345
4.253227 -8.506542 3.090114 0.187594 -0.794658 0.577345
2.628688 -5.257377 8.090117 0.187594 -0.794658 0.577345
4.253227 -8.506542 3.090114 0.471300 -0.661699 0.583122
7.236073 -4.472196 5.257253 0.471300 -0.661699 0.583122
2.628688 -5.257377 8.090117 0.471300 -0.661699 0.583122
3 0 1 2
3 3 4 5
3 6 7 8
3 9 10 11
3 12 13 14
3 15 16 17
3 18 19 20
3 21 22 23
3 24 25 26
3 27 28 29
3 30 31 32
3 33 34 35
3 36 37 38
3 39 40 41
3 42 43 44
3 45 46 47
3 48 49 50
3 51 52 53
3 54 55 56
3 57 58 59
3 60 61 62
3 63 64 65
3 66 67 68
3 69 70 71
3 72 73 74
3 75 76 77
3 78 79 80
3 81 82 83
3 84 85 86
3 87 88 89
3 90 91 92
3 93 94 95
3 96 97 98
3 99 100 101
3 102 103 104
3 105 106 107
3 108 109 110
3 111 112 113
3 114 115 116
3 117 118 119
3 120 121 122
3 123 124 125
3 126 127 128
3 129 130 131
3 132 133 134
3 135 136 137
3 138 139 140
3 141 142 143
3 144 145 146
3 147 148 149
3 150 151 152
3 153 154 155
3 156 157 158
3 159 160 161
3 162 163 164
3 165 166 167
3 168 169 170
3 171 172 173
3 174 175 176
3 177 178 179
3 180 181 182
3 183 184 185
3 186 187 188
3 189 190 191
3 192 193 194
3 195 196 197
3 198 199 200
3 201 202 203
3 204 205 206
3 207 208 209
3 210 211 212
3 213 214 215
3 216 217 218
3 219 220 221
3 222 223 224
3 225 226 227
3 228 229 230
3 231 232 233
3 234 235 236
3 237 238 239
