ply
format ascii 1.0
comment Created by Blender 2.82 (sub 7) - www.blender.org, source file: 'personSizedPerson.blend'
element vertex 258
property float x
property float y
property float z
property float nx
property float ny
property float nz
element face 69
property list uchar uint vertex_indices
end_header
0.000000 -0.000000 -0.202963 0.179044 0.491921 -0.852031
-0.000000 0.175771 -0.101481 0.179044 0.491921 -0.852031
0.112983 0.134648 -0.101481 0.179044 0.491921 -0.852031
-0.000000 0.175771 -0.101481 0.342020 0.939693 -0.000000
-0.000000 0.175771 0.101481 0.342020 0.939693 -0.000000
0.112983 0.134648 0.101481 0.342020 0.939693 -0.000000
0.112983 0.134648 -0.101481 0.342020 0.939693 -0.000000
-0.000000 0.175771 0.101481 0.179044 0.491921 0.852031
-0.000000 -0.000000 0.202963 0.179044 0.491921 0.852031
0.112983 0.134648 0.101481 0.179044 0.491921 0.852031
0.000000 -0.000000 -0.202963 0.453356 0.261745 -0.852031
0.112983 0.134648 -0.101481 0.453356 0.261745 -0.852031
0.173101 0.030522 -0.101481 0.453356 0.261745 -0.852031
0.112983 0.134648 -0.101481 0.866025 0.500000 -0.000000
0.112983 0.134648 0.101481 0.866025 0.500000 -0.000000
0.173101 0.030522 0.101481 0.866025 0.500000 -0.000000
0.173101 0.030522 -0.101481 0.866025 0.500000 -0.000000
0.112983 0.134648 0.101481 0.453356 0.261745 0.852031
-0.000000 -0.000000 0.202963 0.453356 0.261745 0.852031
0.173101 0.030522 0.101481 0.453356 0.261745 0.852031
0.000000 -0.000000 -0.202963 0.515538 -0.090903 -0.852031
0.173101 0.030522 -0.101481 0.515538 -0.090903 -0.852031
0.152222 -0.087886 -0.101481 0.515538 -0.090903 -0.852031
0.173101 0.030522 -0.101481 0.984808 -0.173648 -0.000000
0.173101 0.030522 0.101481 0.984808 -0.173648 -0.000000
0.152222 -0.087886 0.101481 0.984808 -0.173648 -0.000000
0.152222 -0.087886 -0.101481 0.984808 -0.173648 -0.000000
0.173101 0.030522 0.101481 0.515538 -0.090903 0.852031
-0.000000 -0.000000 0.202963 0.515538 -0.090903 0.852031
0.152222 -0.087886 0.101481 0.515538 -0.090903 0.852031
0.000000 -0.000000 -0.202963 0.336493 -0.401017 -0.852031
0.152222 -0.087886 -0.101481 0.336493 -0.401017 -0.852031
0.060117 -0.165171 -0.101481 0.336493 -0.401017 -0.852031
0.152222 -0.087886 -0.101481 0.642788 -0.766044 -0.000000
0.152222 -0.087886 0.101481 0.642788 -0.766044 -0.000000
0.060117 -0.165171 0.101481 0.642788 -0.766044 -0.000000
0.060117 -0.165171 -0.101481 0.642788 -0.766044 -0.000000
0.152222 -0.087886 0.101481 0.336493 -0.401017 0.852031
-0.000000 -0.000000 0.202963 0.336493 -0.401017 0.852031
0.060117 -0.165171 0.101481 0.336493 -0.401017 0.852031
0.000000 -0.000000 -0.202963 0.000000 -0.523491 -0.852031
0.060117 -0.165171 -0.101481 0.000000 -0.523491 -0.852031
-0.060117 -0.165171 -0.101481 0.000000 -0.523491 -0.852031
0.060117 -0.165171 -0.101481 0.000000 -1.000000 0.000000
0.060117 -0.165171 0.101481 0.000000 -1.000000 0.000000
-0.060117 -0.165171 0.101481 0.000000 -1.000000 0.000000
-0.060117 -0.165171 -0.101481 0.000000 -1.000000 0.000000
0.060117 -0.165171 0.101481 0.000000 -0.523491 0.852031
-0.000000 -0.000000 0.202963 0.000000 -0.523491 0.852031
-0.060117 -0.165171 0.101481 0.000000 -0.523491 0.852031
0.000000 -0.000000 -0.202963 -0.336493 -0.401017 -0.852031
-0.060117 -0.165171 -0.101481 -0.336493 -0.401017 -0.852031
-0.152222 -0.087886 -0.101481 -0.336493 -0.401017 -0.852031
-0.060117 -0.165171 -0.101481 -0.642788 -0.766044 0.000000
-0.060117 -0.165171 0.101481 -0.642788 -0.766044 0.000000
-0.152222 -0.087886 0.101481 -0.642788 -0.766044 0.000000
-0.152222 -0.087886 -0.101481 -0.642788 -0.766044 0.000000
-0.060117 -0.165171 0.101481 -0.336493 -0.401017 0.852031
-0.000000 -0.000000 0.202963 -0.336493 -0.401017 0.852031
-0.152222 -0.087886 0.101481 -0.336493 -0.401017 0.852031
0.000000 -0.000000 -0.202963 -0.515538 -0.090903 -0.852031
-0.152222 -0.087886 -0.101481 -0.515538 -0.090903 -0.852031
-0.173101 0.030522 -0.101481 -0.515538 -0.090903 -0.852031
-0.152222 -0.087886 -0.101481 -0.984808 -0.173648 -0.000000
-0.152222 -0.087886 0.101481 -0.984808 -0.173648 -0.000000
-0.173101 0.030522 0.101481 -0.984808 -0.173648 -0.000000
-0.173101 0.030522 -0.101481 -0.984808 -0.173648 -0.000000
-0.152222 -0.087886 0.101481 -0.515538 -0.090903 0.852031
-0.000000 -0.000000 0.202963 -0.515538 -0.090903 0.852031
-0.173101 0.030522 0.101481 -0.515538 -0.090903 0.852031
0.000000 -0.000000 -0.202963 -0.453356 0.261745 -0.852031
-0.173101 0.030522 -0.101481 -0.453356 0.261745 -0.852031
-0.112983 0.134648 -0.101481 -0.453356 0.261745 -0.852031
-0.173101 0.030522 -0.101481 -0.866025 0.500000 0.000000
-0.173101 0.030522 0.101481 -0.866025 0.500000 0.000000
-0.112983 0.134648 0.101481 -0.866025 0.500000 0.000000
-0.112983 0.134648 -0.101481 -0.866025 0.500000 0.000000
-0.173101 0.030522 0.101481 -0.453356 0.261745 0.852031
-0.000000 -0.000000 0.202963 -0.453356 0.261745 0.852031
-0.112983 0.134648 0.101481 -0.453356 0.261745 0.852031
0.000000 -0.000000 -0.202963 -0.179044 0.491920 -0.852031
-0.112983 0.134648 -0.101481 -0.179044 0.491920 -0.852031
-0.000000 0.175771 -0.101481 -0.179044 0.491920 -0.852031
-0.112983 0.134648 -0.101481 -0.342020 0.939693 0.000000
-0.112983 0.134648 0.101481 -0.342020 0.939693 0.000000
-0.000000 0.175771 0.101481 -0.342020 0.939693 0.000000
-0.000000 0.175771 -0.101481 -0.342020 0.939693 0.000000
-0.112983 0.134648 0.101481 -0.179044 0.491921 0.852031
-0.000000 -0.000000 0.202963 -0.179044 0.491921 0.852031
-0.000000 0.175771 0.101481 -0.179044 0.491921 0.852031
0.394683 -0.043238 -0.780589 0.010722 -0.999941 0.001785
0.294026 -0.043238 -0.175851 0.010722 -0.999941 0.001785
0.200334 -0.044271 -0.191446 0.010722 -0.999941 0.001785
0.300991 -0.044271 -0.796183 0.010722 -0.999941 0.001785
0.300991 -0.044271 -0.796183 -0.986425 -0.002702 -0.164188
0.200334 -0.044271 -0.191446 -0.986425 -0.002702 -0.164188
0.200078 0.051809 -0.191489 -0.986425 -0.002702 -0.164188
0.300735 0.051809 -0.796226 -0.986425 -0.002702 -0.164188
0.300735 0.051809 -0.796226 -0.010722 0.999941 -0.001785
0.200078 0.051809 -0.191489 -0.010722 0.999941 -0.001785
0.293770 0.052842 -0.175894 -0.010722 0.999941 -0.001785
0.394427 0.052842 -0.780631 -0.010722 0.999941 -0.001785
0.394427 0.052842 -0.780631 0.986425 0.002702 0.164188
0.293770 0.052842 -0.175894 0.986425 0.002702 0.164188
0.294026 -0.043238 -0.175851 0.986425 0.002702 0.164188
0.394683 -0.043238 -0.780589 0.986425 0.002702 0.164188
0.300991 -0.044271 -0.796183 0.164189 0.000000 -0.986429
0.300735 0.051809 -0.796226 0.164189 0.000000 -0.986429
0.394427 0.052842 -0.780631 0.164189 0.000000 -0.986429
0.394683 -0.043238 -0.780589 0.164189 0.000000 -0.986429
0.200078 0.051809 -0.191489 -0.164188 0.000000 0.986429
0.200334 -0.044271 -0.191446 -0.164188 0.000000 0.986429
0.294026 -0.043238 -0.175851 -0.164188 0.000000 0.986429
0.293770 0.052842 -0.175894 -0.164188 0.000000 0.986429
-0.394427 0.052842 -0.780631 0.010722 0.999941 -0.001785
-0.293770 0.052842 -0.175894 0.010722 0.999941 -0.001785
-0.200078 0.051809 -0.191489 0.010722 0.999941 -0.001785
-0.300735 0.051809 -0.796226 0.010722 0.999941 -0.001785
-0.300735 0.051809 -0.796226 0.986425 -0.002702 -0.164188
-0.200078 0.051809 -0.191489 0.986425 -0.002702 -0.164188
-0.200334 -0.044271 -0.191446 0.986425 -0.002702 -0.164188
-0.300991 -0.044271 -0.796183 0.986425 -0.002702 -0.164188
-0.300991 -0.044271 -0.796183 -0.010722 -0.999941 0.001785
-0.200334 -0.044271 -0.191446 -0.010722 -0.999941 0.001785
-0.294026 -0.043238 -0.175851 -0.010722 -0.999941 0.001785
-0.394683 -0.043238 -0.780589 -0.010722 -0.999941 0.001785
-0.394683 -0.043238 -0.780589 -0.986425 0.002702 0.164188
-0.294026 -0.043238 -0.175851 -0.986425 0.002702 0.164188
-0.293770 0.052842 -0.175894 -0.986425 0.002702 0.164188
-0.394427 0.052842 -0.780631 -0.986425 0.002702 0.164188
-0.300735 0.051809 -0.796226 -0.164189 0.000000 -0.986429
-0.300991 -0.044271 -0.796183 -0.164189 0.000000 -0.986429
-0.394683 -0.043238 -0.780589 -0.164189 0.000000 -0.986429
-0.394427 0.052842 -0.780631 -0.164189 0.000000 -0.986429
-0.200334 -0.044271 -0.191446 0.164188 0.000000 0.986429
-0.200078 0.051809 -0.191489 0.164188 0.000000 0.986429
-0.293770 0.052842 -0.175894 0.164188 0.000000 0.986429
-0.294026 -0.043238 -0.175851 0.164188 0.000000 0.986429
-0.394427 0.052842 -0.780631 0.010722 0.999941 -0.001785
-0.293770 0.052842 -0.175894 0.010722 0.999941 -0.001785
-0.200078 0.051809 -0.191489 0.010722 0.999941 -0.001785
-0.300735 0.051809 -0.796226 0.010722 0.999941 -0.001785
-0.300735 0.051809 -0.796226 0.986425 -0.002702 -0.164188
-0.200078 0.051809 -0.191489 0.986425 -0.002702 -0.164188
-0.200334 -0.044271 -0.191446 0.986425 -0.002702 -0.164188
-0.300991 -0.044271 -0.796183 0.986425 -0.002702 -0.164188
-0.300991 -0.044271 -0.796183 -0.010722 -0.999941 0.001785
-0.200334 -0.044271 -0.191446 -0.010722 -0.999941 0.001785
-0.294026 -0.043238 -0.175851 -0.010722 -0.999941 0.001785
-0.394683 -0.043238 -0.780589 -0.010722 -0.999941 0.001785
-0.394683 -0.043238 -0.780589 -0.986425 0.002702 0.164188
-0.294026 -0.043238 -0.175851 -0.986425 0.002702 0.164188
-0.293770 0.052842 -0.175894 -0.986425 0.002702 0.164188
-0.394427 0.052842 -0.780631 -0.986425 0.002702 0.164188
-0.300735 0.051809 -0.796226 -0.164189 0.000000 -0.986429
-0.300991 -0.044271 -0.796183 -0.164189 0.000000 -0.986429
-0.394683 -0.043238 -0.780589 -0.164189 0.000000 -0.986429
-0.394427 0.052842 -0.780631 -0.164189 0.000000 -0.986429
-0.200334 -0.044271 -0.191446 0.164188 0.000000 0.986429
-0.200078 0.051809 -0.191489 0.164188 0.000000 0.986429
-0.293770 0.052842 -0.175894 0.164188 0.000000 0.986429
-0.294026 -0.043238 -0.175851 0.164188 0.000000 0.986429
0.135031 -0.099990 -0.863488 0.000000 -0.997817 -0.066038
0.195752 -0.144954 -0.184096 0.000000 -0.997817 -0.066038
-0.195752 -0.144954 -0.184096 0.000000 -0.997817 -0.066038
-0.135031 -0.099990 -0.863488 0.000000 -0.997817 -0.066038
-0.135031 -0.099990 -0.863488 -0.996030 -0.000000 -0.089021
-0.195752 -0.144954 -0.184096 -0.996030 -0.000000 -0.089021
-0.195752 0.144954 -0.184096 -0.996030 -0.000000 -0.089021
-0.135031 0.099990 -0.863488 -0.996030 -0.000000 -0.089021
-0.135031 0.099990 -0.863488 -0.000000 0.997817 -0.066038
-0.195752 0.144954 -0.184096 -0.000000 0.997817 -0.066038
0.195752 0.144954 -0.184096 -0.000000 0.997817 -0.066038
0.135031 0.099990 -0.863488 -0.000000 0.997817 -0.066038
0.135031 0.099990 -0.863488 0.996030 0.000000 -0.089021
0.195752 0.144954 -0.184096 0.996030 0.000000 -0.089021
0.195752 -0.144954 -0.184096 0.996030 0.000000 -0.089021
0.135031 -0.099990 -0.863488 0.996030 0.000000 -0.089021
-0.135031 -0.099990 -0.863488 -0.000000 0.000000 -1.000000
-0.135031 0.099990 -0.863488 -0.000000 0.000000 -1.000000
0.135031 0.099990 -0.863488 -0.000000 0.000000 -1.000000
0.135031 -0.099990 -0.863488 -0.000000 0.000000 -1.000000
-0.195752 0.144954 -0.184096 0.000000 0.000000 1.000000
-0.195752 -0.144954 -0.184096 0.000000 0.000000 1.000000
0.195752 -0.144954 -0.184096 0.000000 0.000000 1.000000
0.195752 0.144954 -0.184096 0.000000 0.000000 1.000000
0.280140 -0.044525 -1.536999 0.010723 -0.999941 0.001785
0.151813 -0.044525 -0.766020 0.010723 -0.999941 0.001785
0.032365 -0.045842 -0.785902 0.010723 -0.999941 0.001785
0.160693 -0.045842 -1.556880 0.010723 -0.999941 0.001785
0.160693 -0.045842 -1.556880 -0.986425 -0.002702 -0.164188
0.032365 -0.045842 -0.785902 -0.986425 -0.002702 -0.164188
0.032039 0.076650 -0.785956 -0.986425 -0.002702 -0.164188
0.160366 0.076650 -1.556935 -0.986425 -0.002702 -0.164188
0.160366 0.076650 -1.556935 -0.010722 0.999941 -0.001785
0.032039 0.076650 -0.785956 -0.010722 0.999941 -0.001785
0.151486 0.077967 -0.766075 -0.010722 0.999941 -0.001785
0.279813 0.077967 -1.537053 -0.010722 0.999941 -0.001785
0.279813 0.077967 -1.537053 0.986425 0.002702 0.164188
0.151486 0.077967 -0.766075 0.986425 0.002702 0.164188
0.151813 -0.044525 -0.766020 0.986425 0.002702 0.164188
0.280140 -0.044525 -1.536999 0.986425 0.002702 0.164188
0.160693 -0.045842 -1.556880 0.164189 -0.000000 -0.986429
0.160366 0.076650 -1.556935 0.164189 -0.000000 -0.986429
0.279813 0.077967 -1.537053 0.164189 -0.000000 -0.986429
0.280140 -0.044525 -1.536999 0.164189 -0.000000 -0.986429
0.032039 0.076650 -0.785956 -0.164188 -0.000000 0.986429
0.032365 -0.045842 -0.785902 -0.164188 -0.000000 0.986429
0.151813 -0.044525 -0.766020 -0.164188 -0.000000 0.986429
0.151486 0.077967 -0.766075 -0.164188 -0.000000 0.986429
-0.279813 0.077967 -1.537053 0.010722 0.999941 -0.001785
-0.151486 0.077967 -0.766075 0.010722 0.999941 -0.001785
-0.032039 0.076650 -0.785956 0.010722 0.999941 -0.001785
-0.160366 0.076650 -1.556935 0.010722 0.999941 -0.001785
-0.160366 0.076650 -1.556935 0.986425 -0.002702 -0.164188
-0.032039 0.076650 -0.785956 0.986425 -0.002702 -0.164188
-0.032365 -0.045842 -0.785902 0.986425 -0.002702 -0.164188
-0.160693 -0.045842 -1.556880 0.986425 -0.002702 -0.164188
-0.160693 -0.045842 -1.556880 -0.010723 -0.999941 0.001785
-0.032365 -0.045842 -0.785902 -0.010723 -0.999941 0.001785
-0.151813 -0.044525 -0.766020 -0.010723 -0.999941 0.001785
-0.280140 -0.044525 -1.536999 -0.010723 -0.999941 0.001785
-0.280140 -0.044525 -1.536999 -0.986425 0.002702 0.164188
-0.151813 -0.044525 -0.766020 -0.986425 0.002702 0.164188
-0.151486 0.077967 -0.766075 -0.986425 0.002702 0.164188
-0.279813 0.077967 -1.537053 -0.986425 0.002702 0.164188
-0.160366 0.076650 -1.556935 -0.164189 -0.000000 -0.986429
-0.160693 -0.045842 -1.556880 -0.164189 -0.000000 -0.986429
-0.280140 -0.044525 -1.536999 -0.164189 -0.000000 -0.986429
-0.279813 0.077967 -1.537053 -0.164189 -0.000000 -0.986429
-0.032365 -0.045842 -0.785902 0.164188 -0.000000 0.986429
-0.032039 0.076650 -0.785956 0.164188 -0.000000 0.986429
-0.151486 0.077967 -0.766075 0.164188 -0.000000 0.986429
-0.151813 -0.044525 -0.766020 0.164188 -0.000000 0.986429
-0.279813 0.077967 -1.537053 0.010722 0.999941 -0.001785
-0.151486 0.077967 -0.766075 0.010722 0.999941 -0.001785
-0.032039 0.076650 -0.785956 0.010722 0.999941 -0.001785
-0.160366 0.076650 -1.556935 0.010722 0.999941 -0.001785
-0.160366 0.076650 -1.556935 0.986425 -0.002702 -0.164188
-0.032039 0.076650 -0.785956 0.986425 -0.002702 -0.164188
-0.032365 -0.045842 -0.785902 0.986425 -0.002702 -0.164188
-0.160693 -0.045842 -1.556880 0.986425 -0.002702 -0.164188
-0.160693 -0.045842 -1.556880 -0.010723 -0.999941 0.001785
-0.032365 -0.045842 -0.785902 -0.010723 -0.999941 0.001785
-0.151813 -0.044525 -0.766020 -0.010723 -0.999941 0.001785
-0.280140 -0.044525 -1.536999 -0.010723 -0.999941 0.001785
-0.280140 -0.044525 -1.536999 -0.986425 0.002702 0.164188
-0.151813 -0.044525 -0.766020 -0.986425 0.002702 0.164188
-0.151486 0.077967 -0.766075 -0.986425 0.002702 0.164188
-0.279813 0.077967 -1.537053 -0.986425 0.002702 0.164188
-0.160366 0.076650 -1.556935 -0.164189 -0.000000 -0.986429
-0.160693 -0.045842 -1.556880 -0.164189 -0.000000 -0.986429
-0.280140 -0.044525 -1.536999 -0.164189 -0.000000 -0.986429
-0.279813 0.077967 -1.537053 -0.164189 -0.000000 -0.986429
-0.032365 -0.045842 -0.785902 0.164188 -0.000000 0.986429
-0.032039 0.076650 -0.785956 0.164188 -0.000000 0.986429
-0.151486 0.077967 -0.766075 0.164188 -0.000000 0.986429
-0.151813 -0.044525 -0.766020 0.164188 -0.000000 0.986429
3 0 1 2
4 3 4 5 6
3 7 8 9
3 10 11 12
4 13 14 15 16
3 17 18 19
3 20 21 22
4 23 24 25 26
3 27 28 29
3 30 31 32
4 33 34 35 36
3 37 38 39
3 40 41 42
4 43 44 45 46
3 47 48 49
3 50 51 52
4 53 54 55 56
3 57 58 59
3 60 61 62
4 63 64 65 66
3 67 68 69
3 70 71 72
4 73 74 75 76
3 77 78 79
3 80 81 82
4 83 84 85 86
3 87 88 89
4 90 91 92 93
4 94 95 96 97
4 98 99 100 101
4 102 103 104 105
4 106 107 108 109
4 110 111 112 113
4 114 115 116 117
4 118 119 120 121
4 122 123 124 125
4 126 127 128 129
4 130 131 132 133
4 134 135 136 137
4 138 139 140 141
4 142 143 144 145
4 146 147 148 149
4 150 151 152 153
4 154 155 156 157
4 158 159 160 161
4 162 163 164 165
4 166 167 168 169
4 170 171 172 173
4 174 175 176 177
4 178 179 180 181
4 182 183 184 185
4 186 187 188 189
4 190 191 192 193
4 194 195 196 197
4 198 199 200 201
4 202 203 204 205
4 206 207 208 209
4 210 211 212 213
4 214 215 216 217
4 218 219 220 221
4 222 223 224 225
4 226 227 228 229
4 230 231 232 233
4 234 235 236 237
4 238 239 240 241
4 242 243 244 245
4 246 247 248 249
4 250 251 252 253
4 254 255 256 257
