ply
format ascii 1.0
comment Created by Blender 2.82 (sub 7) - www.blender.org, source file: 'shipInterior.blend'
element vertex 20
property float x
property float y
property float z
property float nx
property float ny
property float nz
property float s
property float t
element face 5
property list uchar uint vertex_indices
end_header
-0.300000 -0.400000 1.000000 0.942875 0.333146 0.000000 0.375000 0.000000
-0.300000 -0.400000 -1.000000 0.942875 0.333146 0.000000 0.375000 0.250000
-0.582664 0.400000 -1.737450 0.942875 0.333146 0.000000 0.625000 0.250000
-0.582664 0.400000 1.000000 0.942875 0.333146 0.000000 0.625000 0.000000
-0.300000 -0.400000 -1.000000 0.000000 0.677778 0.735267 0.375000 0.250000
0.300000 -0.400000 -1.000000 0.000000 0.677778 0.735267 0.375000 0.500000
0.583000 0.400000 -1.737450 0.000000 0.677778 0.735267 0.625000 0.500000
-0.582664 0.400000 -1.737450 0.000000 0.677778 0.735267 0.625000 0.250000
0.300000 -0.400000 -1.000000 -0.942751 0.333498 0.000000 0.375000 0.500000
0.300000 -0.400000 1.000000 -0.942751 0.333498 0.000000 0.375000 0.750000
0.583000 0.400000 1.000000 -0.942751 0.333498 0.000000 0.625000 0.750000
0.583000 0.400000 -1.737450 -0.942751 0.333498 0.000000 0.625000 0.500000
0.300000 -0.400000 1.000000 0.000000 -0.000000 -1.000000 0.375000 0.750000
-0.300000 -0.400000 1.000000 0.000000 -0.000000 -1.000000 0.375000 1.000000
-0.582664 0.400000 1.000000 0.000000 -0.000000 -1.000000 0.625000 1.000000
0.583000 0.400000 1.000000 0.000000 -0.000000 -1.000000 0.625000 0.750000
-0.300000 -0.400000 -1.000000 0.000000 1.000000 0.000000 0.125000 0.500000
-0.300000 -0.400000 1.000000 0.000000 1.000000 0.000000 0.125000 0.750000
0.300000 -0.400000 1.000000 0.000000 1.000000 0.000000 0.375000 0.750000
0.300000 -0.400000 -1.000000 0.000000 1.000000 0.000000 0.375000 0.500000
4 0 1 2 3
4 4 5 6 7
4 8 9 10 11
4 12 13 14 15
4 16 17 18 19
