ply
format ascii 1.0
comment Created by Blender 2.82 (sub 7) - www.blender.org, source file: 'sphere_smooth.blend'
element vertex 42
property float x
property float y
property float z
property float nx
property float ny
property float nz
element face 80
property list uchar uint vertex_indices
end_header
0.000000 -10.000000 0.000000 0.000000 -1.000000 0.000000
4.253227 -8.506542 3.090114 0.425306 -0.850642 0.309000
-1.624555 -8.506543 4.999952 -0.162450 -0.850642 0.499985
7.236073 -4.472196 5.257253 0.723594 -0.447188 0.525712
8.506478 -5.257359 0.000000 0.850642 -0.525712 0.000000
-5.257298 -8.506516 0.000000 -0.525712 -0.850642 0.000000
-1.624555 -8.506543 -4.999952 -0.162450 -0.850642 -0.499985
4.253227 -8.506542 -3.090114 0.425306 -0.850642 -0.309000
9.510579 0.000000 3.090126 0.951048 0.000000 0.309000
-2.763880 -4.472198 8.506492 -0.276376 -0.447218 0.850642
2.628688 -5.257377 8.090117 0.262856 -0.525712 0.808985
0.000000 0.000000 10.000000 0.000000 0.000000 1.000000
-8.944262 -4.472156 0.000000 -0.894406 -0.447188 0.000000
-6.881894 -5.257362 4.999969 -0.688162 -0.525712 0.499985
-9.510579 0.000000 3.090126 -0.951048 0.000000 0.309000
-2.763880 -4.472198 -8.506492 -0.276376 -0.447218 -0.850642
-6.881894 -5.257362 -4.999969 -0.688162 -0.525712 -0.499985
-5.877856 0.000000 -8.090167 -0.587756 0.000000 -0.809015
7.236073 -4.472196 -5.257253 0.723594 -0.447188 -0.525712
2.628689 -5.257377 -8.090117 0.262856 -0.525712 -0.808985
5.877856 0.000000 -8.090167 0.587756 0.000000 -0.809015
5.877856 0.000000 8.090167 0.587756 0.000000 0.809015
-5.877856 0.000000 8.090167 -0.587756 0.000000 0.809015
-9.510579 0.000000 -3.090126 -0.951048 0.000000 -0.309000
0.000000 0.000000 -10.000000 0.000000 0.000000 -1.000000
9.510579 0.000000 -3.090126 0.951048 0.000000 -0.309000
2.763880 4.472198 8.506492 0.276376 0.447218 0.850642
6.881894 5.257362 4.999969 0.688162 0.525712 0.499985
1.624555 8.506543 4.999952 0.162450 0.850642 0.499985
-7.236073 4.472196 5.257253 -0.723594 0.447188 0.525712
-2.628689 5.257377 8.090117 -0.262856 0.525712 0.808985
-4.253227 8.506542 3.090114 -0.425306 0.850642 0.309000
-7.236073 4.472196 -5.257253 -0.723594 0.447188 -0.525712
-8.506478 5.257359 0.000000 -0.850642 0.525712 0.000000
-4.253227 8.506542 -3.090114 -0.425306 0.850642 -0.309000
2.763880 4.472198 -8.506492 0.276376 0.447218 -0.850642
-2.628688 5.257377 -8.090117 -0.262856 0.525712 -0.808985
1.624555 8.506543 -4.999952 0.162450 0.850642 -0.499985
8.944262 4.472156 0.000000 0.894406 0.447188 0.000000
6.881894 5.257362 -4.999969 0.688162 0.525712 -0.499985
5.257298 8.506516 0.000000 0.525712 0.850642 0.000000
0.000000 10.000000 0.000000 0.000000 1.000000 0.000000
3 0 1 2
3 3 1 4
3 0 2 5
3 0 5 6
3 0 6 7
3 3 4 8
3 9 10 11
3 12 13 14
3 15 16 17
3 18 19 20
3 3 8 21
3 9 11 22
3 12 14 23
3 15 17 24
3 18 20 25
3 26 27 28
3 29 30 31
3 32 33 34
3 35 36 37
3 38 39 40
3 40 37 41
3 40 39 37
3 39 35 37
3 37 34 41
3 37 36 34
3 36 32 34
3 34 31 41
3 34 33 31
3 33 29 31
3 31 28 41
3 31 30 28
3 30 26 28
3 28 40 41
3 28 27 40
3 27 38 40
3 25 39 38
3 25 20 39
3 20 35 39
3 24 36 35
3 24 17 36
3 17 32 36
3 23 33 32
3 23 14 33
3 14 29 33
3 22 30 29
3 22 11 30
3 11 26 30
3 21 27 26
3 21 8 27
3 8 38 27
3 20 24 35
3 20 19 24
3 19 15 24
3 17 23 32
3 17 16 23
3 16 12 23
3 14 22 29
3 14 13 22
3 13 9 22
3 11 21 26
3 11 10 21
3 10 3 21
3 8 25 38
3 8 4 25
3 4 18 25
3 7 19 18
3 7 6 19
3 6 15 19
3 6 16 15
3 6 5 16
3 5 12 16
3 5 13 12
3 5 2 13
3 2 9 13
3 4 7 18
3 4 1 7
3 1 0 7
3 2 10 9
3 2 1 10
3 1 3 10
