ply
format ascii 1.0
comment Created by Blender 2.82 (sub 7) - www.blender.org, source file: 'firstShipInterior.blend'
element vertex 374
property float x
property float y
property float z
property float nx
property float ny
property float nz
property uchar red
property uchar green
property uchar blue
property uchar alpha
element face 103
property list uchar uint vertex_indices
end_header
2.891834 -1.541376 0.578367 0.000000 0.000000 -1.000000 139 139 139 255
-2.891834 -1.541376 0.578367 0.000000 0.000000 -1.000000 139 139 139 255
-2.891834 -0.129465 0.578367 0.000000 0.000000 -1.000000 139 139 139 255
-1.999628 0.772091 0.578367 0.000000 0.000000 -1.000000 139 139 139 255
1.980165 0.772091 0.578367 0.000000 0.000000 -1.000000 139 139 139 255
2.891834 -0.135710 0.578367 0.000000 0.000000 -1.000000 139 139 139 255
-2.891834 -1.541376 0.578367 1.000000 0.000000 0.000000 139 139 139 255
-2.891834 -1.541376 -0.578367 1.000000 0.000000 0.000000 139 139 139 255
-2.891834 -0.129465 -0.578367 1.000000 0.000000 0.000000 139 139 139 255
-2.891834 -0.129465 0.578367 1.000000 0.000000 0.000000 139 139 139 255
-2.891834 -1.541376 -0.578367 0.000000 1.000000 0.000000 139 139 139 255
-2.891834 -1.541376 0.578367 0.000000 1.000000 0.000000 139 139 139 255
2.891834 -1.541376 0.578367 0.000000 1.000000 0.000000 139 139 139 255
2.891834 -1.541376 -0.578367 0.000000 1.000000 0.000000 139 139 139 255
2.891834 -1.541376 -0.578367 -1.000000 -0.000000 0.000000 139 139 139 255
2.891834 -1.541376 0.578367 -1.000000 -0.000000 0.000000 139 139 139 255
2.891834 -0.135710 0.578367 -1.000000 -0.000000 0.000000 139 139 139 255
2.891834 -0.135710 -0.578367 -1.000000 -0.000000 0.000000 139 139 139 255
-1.401640 0.970754 0.194606 0.315276 -0.949000 0.000000 139 139 139 255
-1.999628 0.772091 0.578367 0.315276 -0.949000 0.000000 139 139 139 255
-1.999628 0.772091 -0.578367 0.315276 -0.949000 0.000000 139 139 139 255
-1.401640 0.970754 -0.194606 0.315276 -0.949000 0.000000 139 139 139 255
1.382178 0.970754 -0.194606 -0.315276 -0.949000 0.000000 139 139 139 255
1.980165 0.772091 -0.578367 -0.315276 -0.949000 0.000000 139 139 139 255
1.980165 0.772091 0.578367 -0.315276 -0.949000 0.000000 139 139 139 255
1.382178 0.970754 0.194606 -0.315276 -0.949000 0.000000 139 139 139 255
1.382178 0.970754 0.194606 0.000000 -0.888061 -0.459726 139 139 139 255
1.980165 0.772091 0.578367 0.000000 -0.888061 -0.459726 139 139 139 255
-1.999628 0.772091 0.578367 0.000000 -0.888061 -0.459726 139 139 139 255
-1.401640 0.970754 0.194606 0.000000 -0.888061 -0.459726 139 139 139 255
-1.401640 0.970754 -0.194606 0.000000 -0.888061 0.459726 139 139 139 255
-1.999628 0.772091 -0.578367 0.000000 -0.888061 0.459726 139 139 139 255
1.980165 0.772091 -0.578367 0.000000 -0.888061 0.459726 139 139 139 255
1.382178 0.970754 -0.194606 0.000000 -0.888061 0.459726 139 139 139 255
2.796886 -0.648123 -0.852429 0.000000 0.293319 0.956015 139 139 139 255
-2.796886 -0.648123 -0.852429 0.000000 0.293319 0.956015 139 139 139 255
-2.891834 -1.541376 -0.578367 0.000000 0.293319 0.956015 139 139 139 255
2.891834 -1.541376 -0.578367 0.000000 0.293319 0.956015 139 139 139 255
-1.906218 -0.204658 -1.282014 0.485137 -0.480106 0.730849 139 139 139 255
-1.329756 0.377845 -1.282014 0.485137 -0.480106 0.730849 139 139 139 255
-1.999628 0.772091 -0.578367 0.485137 -0.480106 0.730849 139 139 139 255
-2.891834 -0.129465 -0.578367 0.485137 -0.480106 0.730849 139 139 139 255
1.313925 0.377845 -1.282014 -0.482963 -0.485021 0.729041 139 139 139 255
1.906218 -0.211935 -1.282014 -0.482963 -0.485021 0.729041 139 139 139 255
2.891834 -0.135710 -0.578367 -0.482963 -0.485021 0.729041 139 139 139 255
1.980165 0.772091 -0.578367 -0.482963 -0.485021 0.729041 139 139 139 255
-1.906218 -0.622394 -1.282014 0.537633 0.000000 0.843179 139 139 139 255
-1.906218 -0.204658 -1.282014 0.537633 0.000000 0.843179 139 139 139 255
-2.578631 -0.651388 -0.853265 0.537633 0.000000 0.843179 139 139 139 255
-1.329756 0.377845 -1.282014 0.000000 -0.872398 0.488796 139 139 139 255
1.313925 0.377845 -1.282014 0.000000 -0.872398 0.488796 139 139 139 255
1.980165 0.772091 -0.578367 0.000000 -0.872398 0.488796 139 139 139 255
-1.999628 0.772091 -0.578367 0.000000 -0.872398 0.488796 139 139 139 255
-1.906218 -0.622394 -1.282014 0.000000 1.000000 -0.000000 139 139 139 255
1.906218 -0.622394 -1.282014 0.000000 1.000000 -0.000000 139 139 139 255
1.901315 -0.622394 -1.285681 0.000000 1.000000 -0.000000 139 139 139 255
-1.911121 -0.622394 -1.285681 0.000000 1.000000 -0.000000 139 139 139 255
-1.911121 -0.622394 -1.285681 0.000000 -0.377788 -0.925892 139 139 139 255
1.901315 -0.622394 -1.285681 0.000000 -0.377788 -0.925892 139 139 139 255
1.907155 -0.628314 -1.283266 0.000000 -0.377788 -0.925892 139 139 139 255
-1.905281 -0.628314 -1.283266 0.000000 -0.377788 -0.925892 139 139 139 255
-1.911121 -0.622394 -1.285681 0.000000 0.000000 0.000000 139 139 139 255
-1.905281 -0.628314 -1.283266 0.000000 0.000000 0.000000 139 139 139 255
-1.905281 -0.628314 -1.283266 0.000000 0.000000 0.000000 139 139 139 255
-1.911121 -0.622394 -1.285681 0.000000 0.000000 0.000000 139 139 139 255
1.906218 -0.622394 -1.282014 0.000000 0.998211 0.059785 139 139 139 255
-1.906218 -0.622394 -1.282014 0.000000 0.998211 0.059785 139 139 139 255
-2.796886 -0.648123 -0.852429 0.000000 0.998211 0.059785 139 139 139 255
2.796886 -0.648123 -0.852429 0.000000 0.998211 0.059785 139 139 139 255
1.906218 -0.211935 -1.282014 -0.537552 -0.000000 0.843231 139 139 139 255
1.906218 -0.622394 -1.282014 -0.537552 -0.000000 0.843231 139 139 139 255
2.579201 -0.654565 -0.852993 -0.537552 -0.000000 0.843231 139 139 139 255
1.906218 -0.622394 -1.282014 0.029675 -0.992215 -0.120951 139 139 139 255
2.796886 -0.648123 -0.852429 0.029675 -0.992215 -0.120951 139 139 139 255
2.579201 -0.654565 -0.852993 0.029675 -0.992215 -0.120951 139 139 139 255
2.796886 -0.648123 -0.852429 0.011122 -0.292220 -0.956286 139 139 139 255
2.891834 -1.541376 -0.578367 0.011122 -0.292220 -0.956286 139 139 139 255
2.579201 -0.654565 -0.852993 0.011122 -0.292220 -0.956286 139 139 139 255
2.891834 -1.541376 -0.578367 -0.659962 0.000000 0.751299 139 139 139 255
2.891834 -0.135710 -0.578367 -0.659962 0.000000 0.751299 139 139 139 255
2.579201 -0.654565 -0.852993 -0.659962 0.000000 0.751299 139 139 139 255
2.891834 -0.135710 -0.578367 -0.574610 -0.084637 0.814039 139 139 139 255
1.906218 -0.211935 -1.282014 -0.574610 -0.084637 0.814039 139 139 139 255
2.579201 -0.654565 -0.852993 -0.574610 -0.084637 0.814039 139 139 139 255
-1.906218 -0.204658 -1.282014 0.574748 -0.083846 0.814024 139 139 139 255
-2.891834 -0.129465 -0.578367 0.574748 -0.083846 0.814024 139 139 139 255
-2.578631 -0.651388 -0.853265 0.574748 -0.083846 0.814024 139 139 139 255
-2.891834 -0.129465 -0.578367 0.659654 -0.000000 0.751570 139 139 139 255
-2.891834 -1.541376 -0.578367 0.659654 -0.000000 0.751570 139 139 139 255
-2.578631 -0.651388 -0.853265 0.659654 -0.000000 0.751570 139 139 139 255
-2.891834 -1.541376 -0.578367 -0.008036 -0.292529 -0.956223 139 139 139 255
-2.796886 -0.648123 -0.852429 -0.008036 -0.292529 -0.956223 139 139 139 255
-2.578631 -0.651388 -0.853265 -0.008036 -0.292529 -0.956223 139 139 139 255
-2.796886 -0.648123 -0.852429 -0.015245 -0.995712 -0.091244 139 139 139 255
-1.906218 -0.622394 -1.282014 -0.015245 -0.995712 -0.091244 139 139 139 255
-2.578631 -0.651388 -0.853265 -0.015245 -0.995712 -0.091244 139 139 139 255
-2.666689 0.098040 0.435929 0.710783 -0.703411 -0.000000 139 139 139 255
-2.224773 0.544586 0.435929 0.710783 -0.703411 -0.000000 139 139 139 255
-1.999628 0.772091 0.578367 0.710783 -0.703411 -0.000000 139 139 139 255
-2.891834 -0.129465 0.578367 0.710783 -0.703411 -0.000000 139 139 139 255
-2.224773 0.544586 -0.435929 0.710783 -0.703411 0.000000 139 139 139 255
-1.999628 0.772091 -0.578367 0.710783 -0.703411 0.000000 139 139 139 255
-2.666689 0.098040 -0.435929 0.710783 -0.703411 0.000000 139 139 139 255
-2.891834 -0.129465 -0.578367 0.710783 -0.703411 0.000000 139 139 139 255
2.660130 0.095011 -0.421728 -0.705602 -0.708608 -0.000000 139 139 139 255
2.211869 0.541370 -0.421728 -0.705602 -0.708608 -0.000000 139 139 139 255
1.980165 0.772091 -0.578367 -0.705602 -0.708608 -0.000000 139 139 139 255
2.891834 -0.135710 -0.578367 -0.705602 -0.708608 -0.000000 139 139 139 255
2.211869 0.541370 0.421728 -0.705602 -0.708608 0.000000 139 139 139 255
1.980165 0.772091 0.578367 -0.705602 -0.708608 0.000000 139 139 139 255
2.660130 0.095011 0.421728 -0.705602 -0.708608 0.000000 139 139 139 255
2.891834 -0.135710 0.578367 -0.705602 -0.708608 0.000000 139 139 139 255
2.660130 0.095011 0.421728 -0.705602 -0.708609 0.000000 139 139 139 255
2.660130 0.095011 -0.421728 -0.705602 -0.708609 0.000000 139 139 139 255
2.891834 -0.135710 -0.578367 -0.705602 -0.708609 0.000000 139 139 139 255
2.891834 -0.135710 0.578367 -0.705602 -0.708609 0.000000 139 139 139 255
-1.845432 -0.202963 0.000000 0.517588 -0.852030 -0.078409 255 255 255 255
-1.691130 -0.101481 -0.084179 0.517588 -0.852030 -0.078409 255 255 255 255
-1.673121 -0.101481 0.034699 0.517588 -0.852030 -0.078409 255 255 255 255
-1.691130 -0.101481 -0.084179 0.988719 0.000000 -0.149780 255 255 255 255
-1.691130 0.101481 -0.084179 0.988719 0.000000 -0.149780 255 255 255 255
-1.673121 0.101481 0.034699 0.988719 0.000000 -0.149780 255 255 255 255
-1.673121 -0.101481 0.034699 0.988719 0.000000 -0.149780 255 255 255 255
-1.691130 0.101481 -0.084179 0.517588 0.852030 -0.078409 255 255 255 255
-1.845432 0.202963 0.000000 0.517588 0.852030 -0.078409 255 255 255 255
-1.673121 0.101481 0.034699 0.517588 0.852030 -0.078409 255 255 255 255
-1.845432 -0.202963 0.000000 0.446898 -0.852030 0.272630 255 255 255 255
-1.673121 -0.101481 0.034699 0.446898 -0.852030 0.272630 255 255 255 255
-1.735738 -0.101481 0.137341 0.446898 -0.852030 0.272630 255 255 255 255
-1.673121 -0.101481 0.034699 0.853685 0.000000 0.520790 255 255 255 255
-1.673121 0.101481 0.034699 0.853685 0.000000 0.520790 255 255 255 255
-1.735738 0.101481 0.137341 0.853685 0.000000 0.520790 255 255 255 255
-1.735738 -0.101481 0.137341 0.853685 0.000000 0.520790 255 255 255 255
-1.673121 0.101481 0.034699 0.446898 0.852030 0.272630 255 255 255 255
-1.845432 0.202963 0.000000 0.446898 0.852030 0.272630 255 255 255 255
-1.735738 0.101481 0.137341 0.446898 0.852030 0.272630 255 255 255 255
-1.845432 -0.202963 0.000000 0.167096 -0.852030 0.496108 255 255 255 255
-1.735738 -0.101481 0.137341 0.167096 -0.852030 0.496108 255 255 255 255
-1.849683 -0.101481 0.175720 0.167096 -0.852030 0.496108 255 255 255 255
-1.735738 -0.101481 0.137341 0.319194 0.000000 0.947689 255 255 255 255
-1.735738 0.101481 0.137341 0.319194 0.000000 0.947689 255 255 255 255
-1.849683 0.101481 0.175720 0.319194 0.000000 0.947689 255 255 255 255
-1.849683 -0.101481 0.175720 0.319194 0.000000 0.947689 255 255 255 255
-1.735738 0.101481 0.137341 0.167096 0.852030 0.496108 255 255 255 255
-1.845432 0.202963 0.000000 0.167096 0.852030 0.496108 255 255 255 255
-1.849683 0.101481 0.175720 0.167096 0.852030 0.496108 255 255 255 255
-1.845432 -0.202963 0.000000 -0.190888 -0.852030 0.487449 255 255 255 255
-1.849683 -0.101481 0.175720 -0.190888 -0.852030 0.487449 255 255 255 255
-1.961639 -0.101481 0.131877 -0.190888 -0.852030 0.487449 255 255 255 255
-1.849683 -0.101481 0.175720 -0.364644 0.000000 0.931147 255 255 255 255
-1.849683 0.101481 0.175720 -0.364644 0.000000 0.931147 255 255 255 255
-1.961639 0.101481 0.131877 -0.364644 0.000000 0.931147 255 255 255 255
-1.961639 -0.101481 0.131877 -0.364644 0.000000 0.931147 255 255 255 255
-1.849683 0.101481 0.175720 -0.190888 0.852030 0.487448 255 255 255 255
-1.845432 0.202963 0.000000 -0.190888 0.852030 0.487448 255 255 255 255
-1.961639 0.101481 0.131877 -0.190888 0.852030 0.487448 255 255 255 255
-1.845432 -0.202963 0.000000 -0.459554 -0.852030 0.250707 255 255 255 255
-1.961639 -0.101481 0.131877 -0.459554 -0.852030 0.250707 255 255 255 255
-2.019221 -0.101481 0.026328 -0.459554 -0.852030 0.250707 255 255 255 255
-1.961639 -0.101481 0.131877 -0.877862 0.000000 0.478913 255 255 255 255
-1.961639 0.101481 0.131877 -0.877862 0.000000 0.478913 255 255 255 255
-2.019221 0.101481 0.026328 -0.877862 0.000000 0.478913 255 255 255 255
-2.019221 -0.101481 0.026328 -0.877862 0.000000 0.478913 255 255 255 255
-1.961639 0.101481 0.131877 -0.459554 0.852030 0.250707 255 255 255 255
-1.845432 0.202963 0.000000 -0.459554 0.852030 0.250707 255 255 255 255
-2.019221 0.101481 0.026328 -0.459554 0.852030 0.250707 255 255 255 255
-1.845432 -0.202963 0.000000 -0.513191 -0.852030 -0.103342 255 255 255 255
-2.019221 -0.101481 0.026328 -0.513191 -0.852030 -0.103342 255 255 255 255
-1.995485 -0.101481 -0.091540 -0.513191 -0.852030 -0.103342 255 255 255 255
-2.019221 -0.101481 0.026328 -0.980321 0.000000 -0.197409 255 255 255 255
-2.019221 0.101481 0.026328 -0.980321 0.000000 -0.197409 255 255 255 255
-1.995485 0.101481 -0.091540 -0.980321 0.000000 -0.197409 255 255 255 255
-1.995485 -0.101481 -0.091540 -0.980321 0.000000 -0.197409 255 255 255 255
-2.019221 0.101481 0.026328 -0.513191 0.852030 -0.103342 255 255 255 255
-1.845432 0.202963 0.000000 -0.513191 0.852030 -0.103342 255 255 255 255
-1.995485 0.101481 -0.091540 -0.513191 0.852030 -0.103342 255 255 255 255
-1.845432 -0.202963 0.000000 -0.326701 -0.852030 -0.409037 255 255 255 255
-1.995485 -0.101481 -0.091540 -0.326701 -0.852030 -0.409037 255 255 255 255
-1.901538 -0.101481 -0.166576 -0.326701 -0.852030 -0.409037 255 255 255 255
-1.995485 -0.101481 -0.091540 -0.624079 0.000000 -0.781361 255 255 255 255
-1.995485 0.101481 -0.091540 -0.624079 0.000000 -0.781361 255 255 255 255
-1.901538 0.101481 -0.166576 -0.624079 0.000000 -0.781361 255 255 255 255
-1.901538 -0.101481 -0.166576 -0.624079 0.000000 -0.781361 255 255 255 255
-1.995485 0.101481 -0.091540 -0.326701 0.852030 -0.409037 255 255 255 255
-1.845432 0.202963 0.000000 -0.326701 0.852030 -0.409037 255 255 255 255
-1.901538 0.101481 -0.166576 -0.326701 0.852030 -0.409037 255 255 255 255
-1.845432 -0.202963 0.000000 0.012661 -0.852030 -0.523340 255 255 255 255
-1.901538 -0.101481 -0.166576 0.012661 -0.852030 -0.523340 255 255 255 255
-1.781339 -0.101481 -0.163668 0.012661 -0.852030 -0.523340 255 255 255 255
-1.901538 -0.101481 -0.166576 0.024186 0.000000 -0.999707 255 255 255 255
-1.901538 0.101481 -0.166576 0.024186 0.000000 -0.999707 255 255 255 255
-1.781339 0.101481 -0.163668 0.024186 0.000000 -0.999707 255 255 255 255
-1.781339 -0.101481 -0.163668 0.024186 0.000000 -0.999707 255 255 255 255
-1.901538 0.101481 -0.166576 0.012661 0.852030 -0.523340 255 255 255 255
-1.845432 0.202963 0.000000 0.012661 0.852030 -0.523340 255 255 255 255
-1.781339 0.101481 -0.163668 0.012661 0.852030 -0.523340 255 255 255 255
-1.845432 -0.202963 0.000000 0.346092 -0.852030 -0.392767 255 255 255 255
-1.781339 -0.101481 -0.163668 0.346092 -0.852030 -0.392767 255 255 255 255
-1.691130 -0.101481 -0.084179 0.346092 -0.852030 -0.392767 255 255 255 255
-1.781339 -0.101481 -0.163668 0.661120 0.000000 -0.750281 255 255 255 255
-1.781339 0.101481 -0.163668 0.661120 0.000000 -0.750281 255 255 255 255
-1.691130 0.101481 -0.084179 0.661120 0.000000 -0.750281 255 255 255 255
-1.691130 -0.101481 -0.084179 0.661120 0.000000 -0.750281 255 255 255 255
-1.781339 0.101481 -0.163668 0.346092 0.852030 -0.392767 255 255 255 255
-1.845432 0.202963 0.000000 0.346092 0.852030 -0.392767 255 255 255 255
-1.691130 0.101481 -0.084179 0.346092 0.852030 -0.392767 255 255 255 255
-1.694371 -0.780589 0.367185 -0.872673 0.001786 0.488302 255 255 255 255
-1.742576 -0.175851 0.278822 -0.872673 0.001786 0.488302 255 255 255 255
-1.788354 -0.191446 0.197068 -0.872673 0.001786 0.488302 255 255 255 255
-1.740148 -0.796183 0.285431 -0.872673 0.001786 0.488302 255 255 255 255
-1.740148 -0.796183 0.285431 -0.474783 -0.164188 -0.864652 255 255 255 255
-1.788354 -0.191446 0.197068 -0.474783 -0.164188 -0.864652 255 255 255 255
-1.704131 -0.191489 0.150829 -0.474783 -0.164188 -0.864652 255 255 255 255
-1.655925 -0.796226 0.239192 -0.474783 -0.164188 -0.864652 255 255 255 255
-1.655925 -0.796226 0.239192 0.872673 -0.001786 -0.488302 255 255 255 255
-1.704131 -0.191489 0.150829 0.872673 -0.001786 -0.488302 255 255 255 255
-1.658354 -0.175894 0.232583 0.872673 -0.001786 -0.488302 255 255 255 255
-1.610148 -0.780631 0.320946 0.872673 -0.001786 -0.488302 255 255 255 255
-1.610148 -0.780631 0.320946 0.474783 0.164188 0.864652 255 255 255 255
-1.658354 -0.175894 0.232583 0.474783 0.164188 0.864652 255 255 255 255
-1.742576 -0.175851 0.278822 0.474783 0.164188 0.864652 255 255 255 255
-1.694371 -0.780589 0.367185 0.474783 0.164188 0.864652 255 255 255 255
-1.740148 -0.796183 0.285431 0.078631 -0.986429 0.144132 255 255 255 255
-1.655925 -0.796226 0.239192 0.078631 -0.986429 0.144132 255 255 255 255
-1.610148 -0.780631 0.320946 0.078631 -0.986429 0.144132 255 255 255 255
-1.694371 -0.780589 0.367185 0.078631 -0.986429 0.144132 255 255 255 255
-1.704131 -0.191489 0.150829 -0.078630 0.986428 -0.144139 255 255 255 255
-1.788354 -0.191446 0.197068 -0.078630 0.986428 -0.144139 255 255 255 255
-1.742576 -0.175851 0.278822 -0.078630 0.986428 -0.144139 255 255 255 255
-1.658354 -0.175894 0.232583 -0.078630 0.986428 -0.144139 255 255 255 255
-1.987940 -0.780631 -0.371559 0.882948 -0.001786 -0.469467 255 255 255 255
-1.939734 -0.175894 -0.283196 0.882948 -0.001786 -0.469467 255 255 255 255
-1.895771 -0.191489 -0.200453 0.882948 -0.001786 -0.469467 255 255 255 255
-1.943977 -0.796226 -0.288816 0.882948 -0.001786 -0.469467 255 255 255 255
-1.943977 -0.796226 -0.288816 0.470040 -0.164188 0.867240 255 255 255 255
-1.895771 -0.191489 -0.200453 0.470040 -0.164188 0.867240 255 255 255 255
-1.980239 -0.191446 -0.154664 0.470040 -0.164188 0.867240 255 255 255 255
-2.028445 -0.796183 -0.243027 0.470040 -0.164188 0.867240 255 255 255 255
-2.028445 -0.796183 -0.243027 -0.882948 0.001786 0.469467 255 255 255 255
-1.980239 -0.191446 -0.154664 -0.882948 0.001786 0.469467 255 255 255 255
-2.024202 -0.175851 -0.237407 -0.882948 0.001786 0.469467 255 255 255 255
-2.072408 -0.780589 -0.325770 -0.882948 0.001786 0.469467 255 255 255 255
-2.072408 -0.780589 -0.325770 -0.470041 0.164188 -0.867239 255 255 255 255
-2.024202 -0.175851 -0.237407 -0.470041 0.164188 -0.867239 255 255 255 255
-1.939734 -0.175894 -0.283196 -0.470041 0.164188 -0.867239 255 255 255 255
-1.987940 -0.780631 -0.371559 -0.470041 0.164188 -0.867239 255 255 255 255
-1.943977 -0.796226 -0.288816 -0.078630 -0.986429 -0.144133 255 255 255 255
-2.028445 -0.796183 -0.243027 -0.078630 -0.986429 -0.144133 255 255 255 255
-2.072408 -0.780589 -0.325770 -0.078630 -0.986429 -0.144133 255 255 255 255
-1.987940 -0.780631 -0.371559 -0.078630 -0.986429 -0.144133 255 255 255 255
-1.980239 -0.191446 -0.154664 0.078637 0.986429 0.144135 255 255 255 255
-1.895771 -0.191489 -0.200453 0.078637 0.986429 0.144135 255 255 255 255
-1.939734 -0.175894 -0.283196 0.078637 0.986429 0.144135 255 255 255 255
-2.024202 -0.175851 -0.237407 0.078637 0.986429 0.144135 255 255 255 255
-1.987940 -0.780631 -0.371559 0.882948 -0.001786 -0.469467 255 255 255 255
-1.939734 -0.175894 -0.283196 0.882948 -0.001786 -0.469467 255 255 255 255
-1.895771 -0.191489 -0.200453 0.882948 -0.001786 -0.469467 255 255 255 255
-1.943977 -0.796226 -0.288816 0.882948 -0.001786 -0.469467 255 255 255 255
-1.943977 -0.796226 -0.288816 0.470040 -0.164188 0.867240 255 255 255 255
-1.895771 -0.191489 -0.200453 0.470040 -0.164188 0.867240 255 255 255 255
-1.980239 -0.191446 -0.154664 0.470040 -0.164188 0.867240 255 255 255 255
-2.028445 -0.796183 -0.243027 0.470040 -0.164188 0.867240 255 255 255 255
-2.028445 -0.796183 -0.243027 -0.882948 0.001786 0.469467 255 255 255 255
-1.980239 -0.191446 -0.154664 -0.882948 0.001786 0.469467 255 255 255 255
-2.024202 -0.175851 -0.237407 -0.882948 0.001786 0.469467 255 255 255 255
-2.072408 -0.780589 -0.325770 -0.882948 0.001786 0.469467 255 255 255 255
-2.072408 -0.780589 -0.325770 -0.470041 0.164188 -0.867239 255 255 255 255
-2.024202 -0.175851 -0.237407 -0.470041 0.164188 -0.867239 255 255 255 255
-1.939734 -0.175894 -0.283196 -0.470041 0.164188 -0.867239 255 255 255 255
-1.987940 -0.780631 -0.371559 -0.470041 0.164188 -0.867239 255 255 255 255
-1.943977 -0.796226 -0.288816 -0.078630 -0.986429 -0.144133 255 255 255 255
-2.028445 -0.796183 -0.243027 -0.078630 -0.986429 -0.144133 255 255 255 255
-2.072408 -0.780589 -0.325770 -0.078630 -0.986429 -0.144133 255 255 255 255
-1.987940 -0.780631 -0.371559 -0.078630 -0.986429 -0.144133 255 255 255 255
-1.980239 -0.191446 -0.154664 0.078637 0.986429 0.144135 255 255 255 255
-1.895771 -0.191489 -0.200453 0.078637 0.986429 0.144135 255 255 255 255
-1.939734 -0.175894 -0.283196 0.078637 0.986429 0.144135 255 255 255 255
-2.024202 -0.175851 -0.237407 0.078637 0.986429 0.144135 255 255 255 255
-1.868542 -0.863488 0.166425 -0.875946 -0.066038 0.477867 255 255 255 255
-1.878934 -0.184096 0.241264 -0.875946 -0.066038 0.477867 255 255 255 255
-2.066430 -0.184096 -0.102423 -0.875946 -0.066038 0.477867 255 255 255 255
-1.997878 -0.863488 -0.070652 -0.875946 -0.066038 0.477867 255 255 255 255
-1.997878 -0.863488 -0.070652 -0.477012 -0.089021 -0.874377 255 255 255 255
-2.066430 -0.184096 -0.102423 -0.477012 -0.089021 -0.874377 255 255 255 255
-1.811931 -0.184096 -0.241264 -0.477012 -0.089021 -0.874377 255 255 255 255
-1.822323 -0.863488 -0.166425 -0.477012 -0.089021 -0.874377 255 255 255 255
-1.822323 -0.863488 -0.166425 0.875946 -0.066038 -0.477867 255 255 255 255
-1.811931 -0.184096 -0.241264 0.875946 -0.066038 -0.477867 255 255 255 255
-1.624434 -0.184096 0.102423 0.875946 -0.066038 -0.477867 255 255 255 255
-1.692987 -0.863488 0.070652 0.875946 -0.066038 -0.477867 255 255 255 255
-1.692987 -0.863488 0.070652 0.477012 -0.089021 0.874377 255 255 255 255
-1.624434 -0.184096 0.102423 0.477012 -0.089021 0.874377 255 255 255 255
-1.878934 -0.184096 0.241264 0.477012 -0.089021 0.874377 255 255 255 255
-1.868542 -0.863488 0.166425 0.477012 -0.089021 0.874377 255 255 255 255
-1.997878 -0.863488 -0.070652 0.000000 -1.000000 -0.000000 255 255 255 255
-1.822323 -0.863488 -0.166425 0.000000 -1.000000 -0.000000 255 255 255 255
-1.692987 -0.863488 0.070652 0.000000 -1.000000 -0.000000 255 255 255 255
-1.868542 -0.863488 0.166425 0.000000 -1.000000 -0.000000 255 255 255 255
-1.811931 -0.184096 -0.241264 0.000000 1.000000 0.000000 255 255 255 255
-2.066430 -0.184096 -0.102423 0.000000 1.000000 0.000000 255 255 255 255
-1.878934 -0.184096 0.241264 0.000000 1.000000 0.000000 255 255 255 255
-1.624434 -0.184096 0.102423 0.000000 1.000000 0.000000 255 255 255 255
-1.750356 -1.536999 0.267248 -0.872673 0.001786 0.488302 255 255 255 255
-1.811814 -0.766020 0.154595 -0.872673 0.001786 0.488302 255 255 255 255
-1.870175 -0.785902 0.050366 -0.872673 0.001786 0.488302 255 255 255 255
-1.808717 -1.556880 0.163021 -0.872673 0.001786 0.488302 255 255 255 255
-1.808717 -1.556880 0.163021 -0.474784 -0.164188 -0.864652 255 255 255 255
-1.870175 -0.785902 0.050366 -0.474784 -0.164188 -0.864652 255 255 255 255
-1.762800 -0.785956 -0.008583 -0.474784 -0.164188 -0.864652 255 255 255 255
-1.701343 -1.556935 0.104071 -0.474784 -0.164188 -0.864652 255 255 255 255
-1.701343 -1.556935 0.104071 0.872673 -0.001786 -0.488302 255 255 255 255
-1.762800 -0.785956 -0.008583 0.872673 -0.001786 -0.488302 255 255 255 255
-1.704439 -0.766075 0.095644 0.872673 -0.001786 -0.488302 255 255 255 255
-1.642982 -1.537053 0.208298 0.872673 -0.001786 -0.488302 255 255 255 255
-1.642982 -1.537053 0.208298 0.474788 0.164188 0.864650 255 255 255 255
-1.704439 -0.766075 0.095644 0.474788 0.164188 0.864650 255 255 255 255
-1.811814 -0.766020 0.154595 0.474788 0.164188 0.864650 255 255 255 255
-1.750356 -1.536999 0.267248 0.474788 0.164188 0.864650 255 255 255 255
-1.808717 -1.556880 0.163021 0.078631 -0.986429 0.144134 255 255 255 255
-1.701343 -1.556935 0.104071 0.078631 -0.986429 0.144134 255 255 255 255
-1.642982 -1.537053 0.208298 0.078631 -0.986429 0.144134 255 255 255 255
-1.750356 -1.536999 0.267248 0.078631 -0.986429 0.144134 255 255 255 255
-1.762800 -0.785956 -0.008583 -0.078630 0.986429 -0.144134 255 255 255 255
-1.870175 -0.785902 0.050366 -0.078630 0.986429 -0.144134 255 255 255 255
-1.811814 -0.766020 0.154595 -0.078630 0.986429 -0.144134 255 255 255 255
-1.704439 -0.766075 0.095644 -0.078630 0.986429 -0.144134 255 255 255 255
-1.910994 -1.537053 -0.282977 0.882948 -0.001786 -0.469467 255 255 255 255
-1.849537 -0.766075 -0.170323 0.882948 -0.001786 -0.469467 255 255 255 255
-1.793488 -0.785956 -0.064835 0.882948 -0.001786 -0.469467 255 255 255 255
-1.854945 -1.556935 -0.177488 0.882948 -0.001786 -0.469467 255 255 255 255
-1.854945 -1.556935 -0.177488 0.470040 -0.164188 0.867240 255 255 255 255
-1.793488 -0.785956 -0.064835 0.470040 -0.164188 0.867240 255 255 255 255
-1.901175 -0.785902 -0.006458 0.470040 -0.164188 0.867240 255 255 255 255
-1.962633 -1.556880 -0.119112 0.470040 -0.164188 0.867240 255 255 255 255
-1.962633 -1.556880 -0.119112 -0.882948 0.001785 0.469467 255 255 255 255
-1.901175 -0.785902 -0.006458 -0.882948 0.001785 0.469467 255 255 255 255
-1.957224 -0.766020 -0.111947 -0.882948 0.001785 0.469467 255 255 255 255
-2.018682 -1.536999 -0.224601 -0.882948 0.001785 0.469467 255 255 255 255
-2.018682 -1.536999 -0.224601 -0.470036 0.164187 -0.867242 255 255 255 255
-1.957224 -0.766020 -0.111947 -0.470036 0.164187 -0.867242 255 255 255 255
-1.849537 -0.766075 -0.170323 -0.470036 0.164187 -0.867242 255 255 255 255
-1.910994 -1.537053 -0.282977 -0.470036 0.164187 -0.867242 255 255 255 255
-1.854945 -1.556935 -0.177488 -0.078632 -0.986429 -0.144134 255 255 255 255
-1.962633 -1.556880 -0.119112 -0.078632 -0.986429 -0.144134 255 255 255 255
-2.018682 -1.536999 -0.224601 -0.078632 -0.986429 -0.144134 255 255 255 255
-1.910994 -1.537053 -0.282977 -0.078632 -0.986429 -0.144134 255 255 255 255
-1.901175 -0.785902 -0.006458 0.078632 0.986429 0.144133 255 255 255 255
-1.793488 -0.785956 -0.064835 0.078632 0.986429 0.144133 255 255 255 255
-1.849537 -0.766075 -0.170323 0.078632 0.986429 0.144133 255 255 255 255
-1.957224 -0.766020 -0.111947 0.078632 0.986429 0.144133 255 255 255 255
-1.910994 -1.537053 -0.282977 0.882948 -0.001786 -0.469467 255 255 255 255
-1.849537 -0.766075 -0.170323 0.882948 -0.001786 -0.469467 255 255 255 255
-1.793488 -0.785956 -0.064835 0.882948 -0.001786 -0.469467 255 255 255 255
-1.854945 -1.556935 -0.177488 0.882948 -0.001786 -0.469467 255 255 255 255
-1.854945 -1.556935 -0.177488 0.470040 -0.164188 0.867240 255 255 255 255
-1.793488 -0.785956 -0.064835 0.470040 -0.164188 0.867240 255 255 255 255
-1.901175 -0.785902 -0.006458 0.470040 -0.164188 0.867240 255 255 255 255
-1.962633 -1.556880 -0.119112 0.470040 -0.164188 0.867240 255 255 255 255
-1.962633 -1.556880 -0.119112 -0.882948 0.001785 0.469467 255 255 255 255
-1.901175 -0.785902 -0.006458 -0.882948 0.001785 0.469467 255 255 255 255
-1.957224 -0.766020 -0.111947 -0.882948 0.001785 0.469467 255 255 255 255
-2.018682 -1.536999 -0.224601 -0.882948 0.001785 0.469467 255 255 255 255
-2.018682 -1.536999 -0.224601 -0.470036 0.164187 -0.867242 255 255 255 255
-1.957224 -0.766020 -0.111947 -0.470036 0.164187 -0.867242 255 255 255 255
-1.849537 -0.766075 -0.170323 -0.470036 0.164187 -0.867242 255 255 255 255
-1.910994 -1.537053 -0.282977 -0.470036 0.164187 -0.867242 255 255 255 255
-1.854945 -1.556935 -0.177488 -0.078632 -0.986429 -0.144134 255 255 255 255
-1.962633 -1.556880 -0.119112 -0.078632 -0.986429 -0.144134 255 255 255 255
-2.018682 -1.536999 -0.224601 -0.078632 -0.986429 -0.144134 255 255 255 255
-1.910994 -1.537053 -0.282977 -0.078632 -0.986429 -0.144134 255 255 255 255
-1.901175 -0.785902 -0.006458 0.078632 0.986429 0.144133 255 255 255 255
-1.793488 -0.785956 -0.064835 0.078632 0.986429 0.144133 255 255 255 255
-1.849537 -0.766075 -0.170323 0.078632 0.986429 0.144133 255 255 255 255
-1.957224 -0.766020 -0.111947 0.078632 0.986429 0.144133 255 255 255 255
6 0 1 2 3 4 5
4 6 7 8 9
4 10 11 12 13
4 14 15 16 17
4 18 19 20 21
4 22 23 24 25
4 26 27 28 29
4 30 31 32 33
4 34 35 36 37
4 38 39 40 41
4 42 43 44 45
3 46 47 48
4 49 50 51 52
4 53 54 55 56
4 57 58 59 60
4 61 62 63 64
4 65 66 67 68
3 69 70 71
3 72 73 74
3 75 76 77
3 78 79 80
3 81 82 83
3 84 85 86
3 87 88 89
3 90 91 92
3 93 94 95
4 96 97 98 99
4 97 100 101 98
4 100 102 103 101
4 102 96 99 103
4 104 105 106 107
4 105 108 109 106
4 108 110 111 109
4 112 113 114 115
3 116 117 118
4 119 120 121 122
3 123 124 125
3 126 127 128
4 129 130 131 132
3 133 134 135
3 136 137 138
4 139 140 141 142
3 143 144 145
3 146 147 148
4 149 150 151 152
3 153 154 155
3 156 157 158
4 159 160 161 162
3 163 164 165
3 166 167 168
4 169 170 171 172
3 173 174 175
3 176 177 178
4 179 180 181 182
3 183 184 185
3 186 187 188
4 189 190 191 192
3 193 194 195
3 196 197 198
4 199 200 201 202
3 203 204 205
4 206 207 208 209
4 210 211 212 213
4 214 215 216 217
4 218 219 220 221
4 222 223 224 225
4 226 227 228 229
4 230 231 232 233
4 234 235 236 237
4 238 239 240 241
4 242 243 244 245
4 246 247 248 249
4 250 251 252 253
4 254 255 256 257
4 258 259 260 261
4 262 263 264 265
4 266 267 268 269
4 270 271 272 273
4 274 275 276 277
4 278 279 280 281
4 282 283 284 285
4 286 287 288 289
4 290 291 292 293
4 294 295 296 297
4 298 299 300 301
4 302 303 304 305
4 306 307 308 309
4 310 311 312 313
4 314 315 316 317
4 318 319 320 321
4 322 323 324 325
4 326 327 328 329
4 330 331 332 333
4 334 335 336 337
4 338 339 340 341
4 342 343 344 345
4 346 347 348 349
4 350 351 352 353
4 354 355 356 357
4 358 359 360 361
4 362 363 364 365
4 366 367 368 369
4 370 371 372 373
