ply
format ascii 1.0
comment Created by Blender 2.82 (sub 7) - www.blender.org, source file: 'shipInterior.blend'
element vertex 48
property float x
property float y
property float z
property float nx
property float ny
property float nz
property uchar red
property uchar green
property uchar blue
property uchar alpha
element face 11
property list uchar uint vertex_indices
end_header
-5.000000 -2.000000 -1.500000 0.000000 0.000000 1.000000 139 139 139 255
5.000000 -2.000000 -1.500000 0.000000 0.000000 1.000000 139 139 139 255
5.000000 0.430406 -1.500000 0.000000 0.000000 1.000000 139 139 139 255
3.423719 2.000000 -1.500000 0.000000 0.000000 1.000000 139 139 139 255
-3.457371 2.000000 -1.500000 0.000000 0.000000 1.000000 139 139 139 255
-5.000000 0.441204 -1.500000 0.000000 0.000000 1.000000 139 139 139 255
5.000000 -2.000000 1.500000 0.000000 0.000000 -1.000000 139 139 139 255
-5.000000 -2.000000 1.500000 0.000000 0.000000 -1.000000 139 139 139 255
-5.000000 0.441204 1.500000 0.000000 0.000000 -1.000000 139 139 139 255
-3.457371 2.000000 1.500000 0.000000 0.000000 -1.000000 139 139 139 255
3.423719 2.000000 1.500000 0.000000 0.000000 -1.000000 139 139 139 255
5.000000 0.430406 1.500000 0.000000 0.000000 -1.000000 139 139 139 255
-5.000000 -2.000000 1.500000 1.000000 0.000000 0.000000 139 139 139 255
-5.000000 -2.000000 -1.500000 1.000000 0.000000 0.000000 139 139 139 255
-5.000000 0.441204 -1.500000 1.000000 0.000000 0.000000 139 139 139 255
-5.000000 0.441204 1.500000 1.000000 0.000000 0.000000 139 139 139 255
-5.000000 -2.000000 -1.500000 0.000000 1.000000 0.000000 139 139 139 255
-5.000000 -2.000000 1.500000 0.000000 1.000000 0.000000 139 139 139 255
5.000000 -2.000000 1.500000 0.000000 1.000000 0.000000 139 139 139 255
5.000000 -2.000000 -1.500000 0.000000 1.000000 0.000000 139 139 139 255
-3.457371 2.000000 1.500000 0.710783 -0.703411 0.000000 139 139 139 255
-5.000000 0.441204 1.500000 0.710783 -0.703411 0.000000 139 139 139 255
-5.000000 0.441204 -1.500000 0.710783 -0.703411 0.000000 139 139 139 255
-3.457371 2.000000 -1.500000 0.710783 -0.703411 0.000000 139 139 139 255
3.423719 2.000000 -1.500000 -0.705602 -0.708608 0.000000 139 139 139 255
5.000000 0.430406 -1.500000 -0.705602 -0.708608 0.000000 139 139 139 255
5.000000 0.430406 1.500000 -0.705602 -0.708608 0.000000 139 139 139 255
3.423719 2.000000 1.500000 -0.705602 -0.708608 0.000000 139 139 139 255
5.000000 -2.000000 -1.500000 -1.000000 -0.000000 0.000000 139 139 139 255
5.000000 -2.000000 1.500000 -1.000000 -0.000000 0.000000 139 139 139 255
5.000000 0.430406 1.500000 -1.000000 -0.000000 0.000000 139 139 139 255
5.000000 0.430406 -1.500000 -1.000000 -0.000000 0.000000 139 139 139 255
-2.423446 2.343490 0.504713 0.315276 -0.949000 0.000000 139 139 139 255
-3.457371 2.000000 1.500000 0.315276 -0.949000 0.000000 139 139 139 255
-3.457371 2.000000 -1.500000 0.315276 -0.949000 0.000000 139 139 139 255
-2.423446 2.343490 -0.504713 0.315276 -0.949000 0.000000 139 139 139 255
2.389794 2.343490 -0.504713 -0.315276 -0.949000 0.000000 139 139 139 255
3.423719 2.000000 -1.500000 -0.315276 -0.949000 0.000000 139 139 139 255
3.423719 2.000000 1.500000 -0.315276 -0.949000 0.000000 139 139 139 255
2.389794 2.343490 0.504713 -0.315276 -0.949000 0.000000 139 139 139 255
2.389794 2.343490 0.504713 0.000000 -0.945289 -0.326235 139 139 139 255
3.423719 2.000000 1.500000 0.000000 -0.945289 -0.326235 139 139 139 255
-3.457371 2.000000 1.500000 0.000000 -0.945289 -0.326235 139 139 139 255
-2.423446 2.343490 0.504713 0.000000 -0.945289 -0.326235 139 139 139 255
-2.423446 2.343490 -0.504713 0.000000 -0.945289 0.326235 139 139 139 255
-3.457371 2.000000 -1.500000 0.000000 -0.945289 0.326235 139 139 139 255
3.423719 2.000000 -1.500000 0.000000 -0.945289 0.326235 139 139 139 255
2.389794 2.343490 -0.504713 0.000000 -0.945289 0.326235 139 139 139 255
6 0 1 2 3 4 5
6 6 7 8 9 10 11
4 12 13 14 15
4 16 17 18 19
4 20 21 22 23
4 24 25 26 27
4 28 29 30 31
4 32 33 34 35
4 36 37 38 39
4 40 41 42 43
4 44 45 46 47
