ply
format ascii 1.0
comment Created by Blender 2.82 (sub 7) - www.blender.org, source file: 'shipInterior.blend'
element vertex 24
property float x
property float y
property float z
property float nx
property float ny
property float nz
element face 16
property list uchar uint vertex_indices
end_header
-5.000000 -2.000000 -5.000000 1.000000 -0.000000 0.000000
-5.000000 2.000000 5.000000 1.000000 -0.000000 0.000000
-5.000000 -2.000000 5.000000 1.000000 -0.000000 0.000000
5.000000 -2.000000 5.000000 -1.000000 0.000000 0.000000
5.000000 2.000000 -5.000000 -1.000000 0.000000 0.000000
5.000000 -2.000000 -5.000000 -1.000000 0.000000 0.000000
-5.000000 -2.000000 5.000000 -0.000000 0.000000 -1.000000
5.000000 2.000000 5.000000 -0.000000 0.000000 -1.000000
5.000000 -2.000000 5.000000 -0.000000 0.000000 -1.000000
-5.000000 -2.000000 5.000000 0.000000 1.000000 -0.000000
5.000000 -2.000000 -5.000000 0.000000 1.000000 -0.000000
-5.000000 -2.000000 -5.000000 0.000000 1.000000 -0.000000
-5.000000 -2.000000 -5.000000 0.000000 0.000000 1.000000
5.000000 -2.000000 -5.000000 0.000000 0.000000 1.000000
-1.599040 0.380619 -5.000000 0.000000 0.000000 1.000000
-5.000000 2.000000 -5.000000 0.000000 0.000000 1.000000
-1.599040 1.152348 -5.000000 0.000000 0.000000 1.000000
5.000000 2.000000 -5.000000 0.000000 0.000000 1.000000
-5.000000 2.000000 -5.000000 1.000000 0.000000 0.000000
5.000000 2.000000 5.000000 -1.000000 0.000000 0.000000
-5.000000 2.000000 5.000000 -0.000000 -0.000000 -1.000000
5.000000 -2.000000 5.000000 0.000000 1.000000 -0.000000
1.599040 0.380619 -5.000000 -0.000000 0.000000 1.000000
1.599040 1.152348 -5.000000 0.000000 0.000000 1.000000
3 0 1 2
3 3 4 5
3 6 7 8
3 9 10 11
3 12 13 14
3 15 16 17
3 0 18 1
3 3 19 4
3 6 20 7
3 9 21 10
3 13 17 22
3 17 23 22
3 14 15 12
3 13 22 14
3 15 14 16
3 16 23 17
