ply
format ascii 1.0
comment Created by Blender 2.82 (sub 7) - www.blender.org, source file: 'shipInterior.blend'
element vertex 120
property float x
property float y
property float z
property float nx
property float ny
property float nz
property uchar red
property uchar green
property uchar blue
property uchar alpha
element face 34
property list uchar uint vertex_indices
end_header
5.000000 -2.000000 1.000000 -0.000000 0.000000 -1.000000 139 139 139 255
-5.000000 -2.000000 1.000000 -0.000000 0.000000 -1.000000 139 139 139 255
-5.000000 0.441204 1.000000 -0.000000 0.000000 -1.000000 139 139 139 255
-3.457371 2.000000 1.000000 -0.000000 0.000000 -1.000000 139 139 139 255
3.423719 2.000000 1.000000 -0.000000 0.000000 -1.000000 139 139 139 255
5.000000 0.430406 1.000000 -0.000000 0.000000 -1.000000 139 139 139 255
-5.000000 -2.000000 1.000000 1.000000 0.000000 0.000000 139 139 139 255
-5.000000 -2.000000 -1.000000 1.000000 0.000000 0.000000 139 139 139 255
-5.000000 0.441204 -1.000000 1.000000 0.000000 0.000000 139 139 139 255
-5.000000 0.441204 1.000000 1.000000 0.000000 0.000000 139 139 139 255
-5.000000 -2.000000 -1.000000 0.000000 1.000000 0.000000 139 139 139 255
-5.000000 -2.000000 1.000000 0.000000 1.000000 0.000000 139 139 139 255
5.000000 -2.000000 1.000000 0.000000 1.000000 0.000000 139 139 139 255
5.000000 -2.000000 -1.000000 0.000000 1.000000 0.000000 139 139 139 255
5.000000 -2.000000 -1.000000 -1.000000 -0.000000 0.000000 139 139 139 255
5.000000 -2.000000 1.000000 -1.000000 -0.000000 0.000000 139 139 139 255
5.000000 0.430406 1.000000 -1.000000 -0.000000 0.000000 139 139 139 255
5.000000 0.430406 -1.000000 -1.000000 -0.000000 0.000000 139 139 139 255
-2.423446 2.343490 0.336476 0.315276 -0.949000 0.000000 139 139 139 255
-3.457371 2.000000 1.000000 0.315276 -0.949000 0.000000 139 139 139 255
-3.457371 2.000000 -1.000000 0.315276 -0.949000 0.000000 139 139 139 255
-2.423446 2.343490 -0.336476 0.315276 -0.949000 0.000000 139 139 139 255
2.389794 2.343490 -0.336476 -0.315276 -0.949000 0.000000 139 139 139 255
3.423719 2.000000 -1.000000 -0.315276 -0.949000 0.000000 139 139 139 255
3.423719 2.000000 1.000000 -0.315276 -0.949000 0.000000 139 139 139 255
2.389794 2.343490 0.336476 -0.315276 -0.949000 0.000000 139 139 139 255
2.389794 2.343490 0.336476 0.000000 -0.888061 -0.459726 139 139 139 255
3.423719 2.000000 1.000000 0.000000 -0.888061 -0.459726 139 139 139 255
-3.457371 2.000000 1.000000 0.000000 -0.888061 -0.459726 139 139 139 255
-2.423446 2.343490 0.336476 0.000000 -0.888061 -0.459726 139 139 139 255
-2.423446 2.343490 -0.336476 0.000000 -0.888061 0.459726 139 139 139 255
-3.457371 2.000000 -1.000000 0.000000 -0.888061 0.459726 139 139 139 255
3.423719 2.000000 -1.000000 0.000000 -0.888061 0.459726 139 139 139 255
2.389794 2.343490 -0.336476 0.000000 -0.888061 0.459726 139 139 139 255
4.835835 -0.455559 -1.473856 0.000000 0.293319 0.956015 139 139 139 255
-4.835835 -0.455559 -1.473856 0.000000 0.293319 0.956015 139 139 139 255
-5.000000 -2.000000 -1.000000 0.000000 0.293319 0.956015 139 139 139 255
5.000000 -2.000000 -1.000000 0.000000 0.293319 0.956015 139 139 139 255
-3.295863 0.311195 -2.216610 0.485137 -0.480106 0.730849 139 139 139 255
-2.299158 1.318345 -2.216610 0.485137 -0.480106 0.730849 139 139 139 255
-3.457371 2.000000 -1.000000 0.485137 -0.480106 0.730849 139 139 139 255
-5.000000 0.441204 -1.000000 0.485137 -0.480106 0.730849 139 139 139 255
2.271786 1.318345 -2.216610 -0.482963 -0.485021 0.729041 139 139 139 255
3.295863 0.298613 -2.216610 -0.482963 -0.485021 0.729041 139 139 139 255
5.000000 0.430406 -1.000000 -0.482963 -0.485021 0.729041 139 139 139 255
3.423719 2.000000 -1.000000 -0.482963 -0.485021 0.729041 139 139 139 255
-3.295863 -0.411074 -2.216610 0.537633 0.000000 0.843179 139 139 139 255
-3.295863 0.311195 -2.216610 0.537633 0.000000 0.843179 139 139 139 255
-4.458471 -0.461205 -1.475301 0.537633 0.000000 0.843179 139 139 139 255
-2.299158 1.318345 -2.216610 0.000000 -0.872398 0.488796 139 139 139 255
2.271786 1.318345 -2.216610 0.000000 -0.872398 0.488796 139 139 139 255
3.423719 2.000000 -1.000000 0.000000 -0.872398 0.488796 139 139 139 255
-3.457371 2.000000 -1.000000 0.000000 -0.872398 0.488796 139 139 139 255
-3.295863 -0.411074 -2.216610 0.000000 1.000000 -0.000000 139 139 139 255
3.295863 -0.411074 -2.216610 0.000000 1.000000 -0.000000 139 139 139 255
3.287386 -0.411074 -2.222952 0.000000 1.000000 -0.000000 139 139 139 255
-3.304341 -0.411074 -2.222952 0.000000 1.000000 -0.000000 139 139 139 255
-3.304341 -0.411074 -2.222952 0.000000 -0.377778 -0.925896 139 139 139 255
3.287386 -0.411074 -2.222952 0.000000 -0.377778 -0.925896 139 139 139 255
3.297483 -0.421310 -2.218776 0.000000 -0.377778 -0.925896 139 139 139 255
-3.294243 -0.421310 -2.218776 0.000000 -0.377778 -0.925896 139 139 139 255
-3.304341 -0.411074 -2.222952 0.000000 0.000000 0.000000 139 139 139 255
-3.294243 -0.421310 -2.218776 0.000000 0.000000 0.000000 139 139 139 255
-3.294243 -0.421310 -2.218776 0.000000 0.000000 0.000000 139 139 139 255
-3.304341 -0.411074 -2.222952 0.000000 0.000000 0.000000 139 139 139 255
3.295863 -0.411074 -2.216610 0.000000 0.998211 0.059785 139 139 139 255
-3.295863 -0.411074 -2.216610 0.000000 0.998211 0.059785 139 139 139 255
-4.835835 -0.455559 -1.473856 0.000000 0.998211 0.059785 139 139 139 255
4.835835 -0.455559 -1.473856 0.000000 0.998211 0.059785 139 139 139 255
3.295863 0.298613 -2.216610 -0.537552 -0.000000 0.843230 139 139 139 255
3.295863 -0.411074 -2.216610 -0.537552 -0.000000 0.843230 139 139 139 255
4.459455 -0.466697 -1.474830 -0.537552 -0.000000 0.843230 139 139 139 255
3.295863 -0.411074 -2.216610 0.029675 -0.992215 -0.120952 139 139 139 255
4.835835 -0.455559 -1.473856 0.029675 -0.992215 -0.120952 139 139 139 255
4.459455 -0.466697 -1.474830 0.029675 -0.992215 -0.120952 139 139 139 255
4.835835 -0.455559 -1.473856 0.011122 -0.292220 -0.956286 139 139 139 255
5.000000 -2.000000 -1.000000 0.011122 -0.292220 -0.956286 139 139 139 255
4.459455 -0.466697 -1.474830 0.011122 -0.292220 -0.956286 139 139 139 255
5.000000 -2.000000 -1.000000 -0.659963 0.000000 0.751298 139 139 139 255
5.000000 0.430406 -1.000000 -0.659963 0.000000 0.751298 139 139 139 255
4.459455 -0.466697 -1.474830 -0.659963 0.000000 0.751298 139 139 139 255
5.000000 0.430406 -1.000000 -0.574610 -0.084637 0.814039 139 139 139 255
3.295863 0.298613 -2.216610 -0.574610 -0.084637 0.814039 139 139 139 255
4.459455 -0.466697 -1.474830 -0.574610 -0.084637 0.814039 139 139 139 255
-3.295863 0.311195 -2.216610 0.574748 -0.083846 0.814024 139 139 139 255
-5.000000 0.441204 -1.000000 0.574748 -0.083846 0.814024 139 139 139 255
-4.458471 -0.461205 -1.475301 0.574748 -0.083846 0.814024 139 139 139 255
-5.000000 0.441204 -1.000000 0.659653 -0.000000 0.751570 139 139 139 255
-5.000000 -2.000000 -1.000000 0.659653 -0.000000 0.751570 139 139 139 255
-4.458471 -0.461205 -1.475301 0.659653 -0.000000 0.751570 139 139 139 255
-5.000000 -2.000000 -1.000000 -0.008036 -0.292528 -0.956223 139 139 139 255
-4.835835 -0.455559 -1.473856 -0.008036 -0.292528 -0.956223 139 139 139 255
-4.458471 -0.461205 -1.475301 -0.008036 -0.292528 -0.956223 139 139 139 255
-4.835835 -0.455559 -1.473856 -0.015246 -0.995712 -0.091245 139 139 139 255
-3.295863 -0.411074 -2.216610 -0.015246 -0.995712 -0.091245 139 139 139 255
-4.458471 -0.461205 -1.475301 -0.015246 -0.995712 -0.091245 139 139 139 255
-4.610723 0.834561 0.753724 0.710783 -0.703411 -0.000000 139 139 139 255
-3.846648 1.606643 0.753724 0.710783 -0.703411 -0.000000 139 139 139 255
-3.457371 2.000000 1.000000 0.710783 -0.703411 -0.000000 139 139 139 255
-5.000000 0.441204 1.000000 0.710783 -0.703411 -0.000000 139 139 139 255
-3.846648 1.606643 -0.753724 0.710783 -0.703411 0.000000 139 139 139 255
-3.457371 2.000000 -1.000000 0.710783 -0.703411 0.000000 139 139 139 255
-4.610723 0.834561 -0.753724 0.710783 -0.703411 0.000000 139 139 139 255
-5.000000 0.441204 -1.000000 0.710783 -0.703411 0.000000 139 139 139 255
4.599382 0.829324 -0.729171 -0.705602 -0.708608 -0.000001 139 139 139 255
3.824336 1.601082 -0.729171 -0.705602 -0.708608 -0.000001 139 139 139 255
3.423719 2.000000 -1.000000 -0.705602 -0.708608 -0.000001 139 139 139 255
5.000000 0.430406 -1.000000 -0.705602 -0.708608 -0.000001 139 139 139 255
3.824336 1.601082 -0.729171 -0.705602 -0.708608 0.000000 139 139 139 255
3.824336 1.601082 0.729171 -0.705602 -0.708608 0.000000 139 139 139 255
3.423719 2.000000 1.000000 -0.705602 -0.708608 0.000000 139 139 139 255
3.423719 2.000000 -1.000000 -0.705602 -0.708608 0.000000 139 139 139 255
3.824336 1.601082 0.729171 -0.705602 -0.708608 0.000001 139 139 139 255
4.599382 0.829324 0.729171 -0.705602 -0.708608 0.000001 139 139 139 255
5.000000 0.430406 1.000000 -0.705602 -0.708608 0.000001 139 139 139 255
3.423719 2.000000 1.000000 -0.705602 -0.708608 0.000001 139 139 139 255
4.599382 0.829324 0.729171 -0.705602 -0.708609 0.000000 139 139 139 255
4.599382 0.829324 -0.729171 -0.705602 -0.708609 0.000000 139 139 139 255
5.000000 0.430406 -1.000000 -0.705602 -0.708609 0.000000 139 139 139 255
5.000000 0.430406 1.000000 -0.705602 -0.708609 0.000000 139 139 139 255
6 0 1 2 3 4 5
4 6 7 8 9
4 10 11 12 13
4 14 15 16 17
4 18 19 20 21
4 22 23 24 25
4 26 27 28 29
4 30 31 32 33
4 34 35 36 37
4 38 39 40 41
4 42 43 44 45
3 46 47 48
4 49 50 51 52
4 53 54 55 56
4 57 58 59 60
4 61 62 63 64
4 65 66 67 68
3 69 70 71
3 72 73 74
3 75 76 77
3 78 79 80
3 81 82 83
3 84 85 86
3 87 88 89
3 90 91 92
3 93 94 95
4 96 97 98 99
4 97 100 101 98
4 100 102 103 101
4 102 96 99 103
4 104 105 106 107
4 108 109 110 111
4 112 113 114 115
4 116 117 118 119
