ply
format ascii 1.0
comment Created by Blender 2.82 (sub 7) - www.blender.org, source file: 'shipInterior.blend'
element vertex 24
property float x
property float y
property float z
property float nx
property float ny
property float nz
element face 8
property list uchar uint vertex_indices
end_header
-5.000000 -2.000000 5.000000 1.000000 0.000000 0.000000
-5.000000 -2.000000 -5.000000 1.000000 0.000000 0.000000
-5.000000 2.000000 -5.000000 1.000000 0.000000 0.000000
-5.000000 2.000000 5.000000 1.000000 0.000000 0.000000
5.000000 -2.000000 -5.000000 -1.000000 -0.000000 0.000000
5.000000 -2.000000 5.000000 -1.000000 -0.000000 0.000000
5.000000 2.000000 5.000000 -1.000000 -0.000000 0.000000
5.000000 2.000000 -5.000000 -1.000000 -0.000000 0.000000
5.000000 -2.000000 5.000000 0.000000 -0.000000 -1.000000
-5.000000 -2.000000 5.000000 0.000000 -0.000000 -1.000000
-5.000000 2.000000 5.000000 0.000000 -0.000000 -1.000000
5.000000 2.000000 5.000000 0.000000 -0.000000 -1.000000
-5.000000 -2.000000 -5.000000 0.000000 1.000000 0.000000
-5.000000 -2.000000 5.000000 0.000000 1.000000 0.000000
5.000000 -2.000000 5.000000 0.000000 1.000000 0.000000
5.000000 -2.000000 -5.000000 0.000000 1.000000 0.000000
-2.000000 0.800000 -5.000000 0.000000 -0.000000 1.000000
-5.000000 2.000000 -5.000000 0.000000 -0.000000 1.000000
-5.000000 -2.000000 -5.000000 0.000000 -0.000000 1.000000
-2.000000 -0.800000 -5.000000 0.000000 -0.000000 1.000000
5.000000 -2.000000 -5.000000 0.000000 0.000000 1.000000
2.000000 -0.800000 -5.000000 0.000000 0.000000 1.000000
2.000000 0.800000 -5.000000 -0.000000 0.000000 1.000000
5.000000 2.000000 -5.000000 -0.000000 0.000000 1.000000
4 0 1 2 3
4 4 5 6 7
4 8 9 10 11
4 12 13 14 15
4 16 17 18 19
4 19 18 20 21
4 22 23 17 16
4 21 20 23 22
