ply
format ascii 1.0
comment Created by Blender 2.82 (sub 7) - www.blender.org, source file: 'k-49rHauler.blend'
element vertex 356
property float x
property float y
property float z
property float nx
property float ny
property float nz
property uchar red
property uchar green
property uchar blue
property uchar alpha
element face 95
property list uchar uint vertex_indices
end_header
3.726986 1.871828 3.719043 -0.868967 0.494871 -0.000004 155 108 95 255
1.881261 -1.369168 3.719043 -0.868967 0.494871 -0.000004 140 81 60 255
1.766522 -1.570639 3.950895 -0.868967 0.494871 -0.000004 131 56 9 255
3.841678 2.073221 3.950895 -0.868967 0.494871 -0.000004 131 56 8 255
0.000000 -1.570639 3.950895 0.000000 -0.000000 -1.000000 131 56 8 255
-1.766522 -1.570639 3.950895 0.000000 -0.000000 -1.000000 131 56 8 255
-3.841678 2.073221 3.950895 0.000000 -0.000000 -1.000000 132 58 15 255
0.000000 2.073221 3.950895 0.000000 -0.000000 -1.000000 131 56 8 255
0.000000 -1.570639 -1.766522 0.000000 1.000000 0.000000 131 56 8 255
-1.766522 -1.570639 -1.766522 0.000000 1.000000 0.000000 131 56 8 255
-1.766522 -1.570639 3.950895 0.000000 1.000000 0.000000 131 56 8 255
0.000000 -1.570639 3.950895 0.000000 1.000000 0.000000 131 56 8 255
3.842795 2.075085 -1.649720 0.000654 -1.000000 0.000323 132 58 16 255
3.841678 2.073221 3.950895 0.000654 -1.000000 0.000323 131 56 8 255
0.000000 2.073221 3.950895 0.000654 -1.000000 0.000323 131 56 8 255
0.000000 2.069460 -3.498745 0.000654 -1.000000 0.000323 131 56 8 255
1.766522 2.069460 -3.498745 0.000654 -1.000000 0.000323 131 56 8 255
3.578788 1.889937 -1.797066 -0.627211 0.334671 0.703279 131 56 8 255
1.919055 -1.024385 -1.890435 -0.627211 0.334671 0.703279 131 56 8 255
1.766522 -1.570639 -1.766522 -0.627211 0.334671 0.703279 131 56 8 255
3.842795 2.075085 -1.649720 -0.627211 0.334671 0.703279 132 58 16 255
-1.577395 1.898683 -3.417478 0.000000 0.429700 0.902972 136 69 41 255
-1.766522 2.069460 -3.498745 0.000000 0.429700 0.902972 131 56 8 255
-1.766522 -1.570639 -1.766522 0.000000 0.429700 0.902972 131 56 8 255
-1.577395 -1.399862 -1.847790 0.000000 0.429700 0.902972 131 56 8 255
1.881259 -1.369167 -1.528126 -0.868960 0.494882 -0.000004 131 56 9 255
3.728013 1.873538 -1.424236 -0.868960 0.494882 -0.000004 132 58 13 255
3.842795 2.075085 -1.649720 -0.868960 0.494882 -0.000004 132 58 16 255
1.766522 -1.570639 -1.766522 -0.868960 0.494882 -0.000004 131 56 8 255
0.000000 1.898683 -3.417478 0.000000 0.429699 0.902972 131 56 8 255
0.000000 2.069460 -3.498745 0.000000 0.429699 0.902972 131 56 8 255
-1.766522 2.069460 -3.498745 0.000000 0.429699 0.902972 131 56 8 255
-1.577395 1.898683 -3.417478 0.000000 0.429699 0.902972 136 69 41 255
1.919055 1.885440 -3.275141 -0.627211 0.334672 0.703279 131 56 8 255
3.578788 1.889937 -1.797066 -0.627211 0.334672 0.703279 131 56 8 255
3.842795 2.075085 -1.649720 -0.627211 0.334672 0.703279 132 58 16 255
1.766522 2.069460 -3.498745 -0.627211 0.334672 0.703279 131 56 8 255
1.577395 1.898683 -3.417478 0.000000 0.429700 0.902972 131 56 8 255
1.577395 -1.399862 -1.847790 0.000000 0.429700 0.902972 131 56 8 255
1.766522 -1.570639 -1.766522 0.000000 0.429700 0.902972 131 56 8 255
1.766522 2.069460 -3.498745 0.000000 0.429700 0.902972 131 56 8 255
1.577395 1.898683 -3.417478 0.000000 0.429699 0.902972 131 56 8 255
1.766522 2.069460 -3.498745 0.000000 0.429699 0.902972 131 56 8 255
3.841678 2.073221 3.950895 -0.000000 0.000000 -1.000000 131 56 8 255
1.766522 -1.570639 3.950895 -0.000000 0.000000 -1.000000 131 56 9 255
1.881261 -1.369168 3.719043 -0.868964 0.494876 0.000000 140 81 60 255
1.881259 -1.369167 -1.528126 -0.868964 0.494876 0.000000 131 56 9 255
1.766522 -1.570639 -1.766522 -0.868964 0.494876 0.000000 131 56 8 255
1.766522 -1.570639 3.950895 -0.868964 0.494876 0.000000 131 56 9 255
1.577395 -1.399862 -1.847790 0.000000 0.429699 0.902972 131 56 8 255
0.000000 -1.399862 -1.847790 0.000000 0.429699 0.902972 131 56 8 255
0.000000 -1.570639 -1.766522 0.000000 0.429699 0.902972 131 56 8 255
1.766522 -1.570639 -1.766522 0.000000 0.429699 0.902972 131 56 8 255
3.728013 1.873538 -1.424236 -0.868963 0.494876 -0.000009 132 58 13 255
3.726986 1.871828 3.719043 -0.868963 0.494876 -0.000009 155 108 95 255
3.841678 2.073221 3.950895 -0.868963 0.494876 -0.000009 131 56 8 255
3.842795 2.075085 -1.649720 -0.868963 0.494876 -0.000009 132 58 16 255
-3.578788 1.889937 -1.797066 0.627211 0.334671 0.703279 131 56 8 255
-3.842795 2.075085 -1.649720 0.627211 0.334671 0.703279 131 56 9 255
-1.766522 -1.570639 -1.766522 0.627211 0.334671 0.703279 131 56 8 255
-1.919055 -1.024385 -1.890435 0.627211 0.334671 0.703279 132 59 19 255
-1.919055 -1.024385 -1.890435 0.627212 0.334671 0.703279 132 59 19 255
-1.766522 -1.570639 -1.766522 0.627212 0.334671 0.703279 131 56 8 255
-1.766522 2.069460 -3.498745 0.627212 0.334671 0.703279 131 56 8 255
-1.919055 1.885440 -3.275141 0.627212 0.334671 0.703279 131 56 9 255
-1.919055 1.885440 -3.275141 0.627211 0.334672 0.703279 131 56 9 255
-1.766522 2.069460 -3.498745 0.627211 0.334672 0.703279 131 56 8 255
-3.842795 2.075085 -1.649720 0.627211 0.334672 0.703279 131 56 9 255
-3.578788 1.889937 -1.797066 0.627211 0.334672 0.703279 131 56 8 255
-1.881261 -1.369168 3.719043 0.868964 0.494876 0.000000 131 56 8 255
-1.766522 -1.570639 3.950895 0.868964 0.494876 0.000000 131 56 8 255
-1.766522 -1.570639 -1.766522 0.868964 0.494876 0.000000 131 56 8 255
-1.881259 -1.369167 -1.528126 0.868964 0.494876 0.000000 131 56 8 255
-3.726986 1.871828 3.719043 0.868967 0.494871 -0.000004 131 56 8 255
-3.841678 2.073221 3.950895 0.868967 0.494871 -0.000004 132 58 15 255
-1.766522 -1.570639 3.950895 0.868967 0.494871 -0.000004 131 56 8 255
-1.881261 -1.369168 3.719043 0.868967 0.494871 -0.000004 131 56 8 255
-1.881259 -1.369167 -1.528126 0.868960 0.494882 -0.000004 131 56 8 255
-1.766522 -1.570639 -1.766522 0.868960 0.494882 -0.000004 131 56 8 255
-3.842795 2.075085 -1.649720 0.868960 0.494882 -0.000004 131 56 9 255
-3.728013 1.873538 -1.424236 0.868960 0.494882 -0.000004 131 57 12 255
-3.728013 1.873538 -1.424236 0.868963 0.494876 -0.000009 131 57 12 255
-3.842795 2.075085 -1.649720 0.868963 0.494876 -0.000009 131 56 9 255
-3.841678 2.073221 3.950895 0.868963 0.494876 -0.000009 132 58 15 255
-3.726986 1.871828 3.719043 0.868963 0.494876 -0.000009 131 56 8 255
-3.842795 2.075085 -1.649720 -0.000654 -1.000000 0.000323 131 56 9 255
-1.766522 2.069460 -3.498745 -0.000654 -1.000000 0.000323 131 56 8 255
0.000000 2.069460 -3.498745 -0.000654 -1.000000 0.000323 131 56 8 255
0.000000 2.073221 3.950895 -0.000654 -1.000000 0.000323 131 56 8 255
-3.841678 2.073221 3.950895 -0.000654 -1.000000 0.000323 132 58 15 255
1.766522 -1.570639 3.950895 0.000000 1.000000 0.000000 131 56 9 255
1.766522 -1.570639 -1.766522 0.000000 1.000000 0.000000 131 56 8 255
1.919055 -1.024385 -1.890435 -0.627212 0.334671 0.703279 131 56 8 255
1.919055 1.885440 -3.275141 -0.627212 0.334671 0.703279 131 56 8 255
1.766522 2.069460 -3.498745 -0.627212 0.334671 0.703279 131 56 8 255
1.766522 -1.570639 -1.766522 -0.627212 0.334671 0.703279 131 56 8 255
-1.577395 -1.399862 -1.847790 0.000000 0.429699 0.902972 131 56 8 255
-1.766522 -1.570639 -1.766522 0.000000 0.429699 0.902972 131 56 8 255
0.000000 -0.245786 1.986339 0.179048 -0.852030 -0.491922 255 255 255 255
0.000000 -0.144304 1.810568 0.179048 -0.852030 -0.491922 255 255 255 255
0.112983 -0.144304 1.851691 0.179048 -0.852030 -0.491922 255 255 255 255
0.000000 -0.144304 1.810568 0.342024 0.000000 -0.939691 255 255 255 255
0.000000 0.058658 1.810568 0.342024 0.000000 -0.939691 255 255 255 255
0.112983 0.058658 1.851691 0.342024 0.000000 -0.939691 255 255 255 255
0.112983 -0.144304 1.851691 0.342024 0.000000 -0.939691 255 255 255 255
0.000000 0.058658 1.810568 0.179048 0.852030 -0.491922 255 255 255 255
0.000000 0.160140 1.986339 0.179048 0.852030 -0.491922 255 255 255 255
0.112983 0.058658 1.851691 0.179048 0.852030 -0.491922 255 255 255 255
0.000000 -0.245786 1.986339 0.453357 -0.852030 -0.261749 255 255 255 255
0.112983 -0.144304 1.851691 0.453357 -0.852030 -0.261749 255 255 255 255
0.173101 -0.144304 1.955817 0.453357 -0.852030 -0.261749 255 255 255 255
0.112983 -0.144304 1.851691 0.866022 0.000000 -0.500005 255 255 255 255
0.112983 0.058658 1.851691 0.866022 0.000000 -0.500005 255 255 255 255
0.173101 0.058658 1.955817 0.866022 0.000000 -0.500005 255 255 255 255
0.173101 -0.144304 1.955817 0.866022 0.000000 -0.500005 255 255 255 255
0.112983 0.058658 1.851691 0.453357 0.852030 -0.261749 255 255 255 255
0.000000 0.160140 1.986339 0.453357 0.852030 -0.261749 255 255 255 255
0.173101 0.058658 1.955817 0.453357 0.852030 -0.261749 255 255 255 255
0.000000 -0.245786 1.986339 0.515539 -0.852030 0.090905 255 255 255 255
0.173101 -0.144304 1.955817 0.515539 -0.852030 0.090905 255 255 255 255
0.152222 -0.144304 2.074225 0.515539 -0.852030 0.090905 255 255 255 255
0.173101 -0.144304 1.955817 0.984807 0.000000 0.173652 255 255 255 255
0.173101 0.058658 1.955817 0.984807 0.000000 0.173652 255 255 255 255
0.152222 0.058658 2.074225 0.984807 0.000000 0.173652 255 255 255 255
0.152222 -0.144304 2.074225 0.984807 0.000000 0.173652 255 255 255 255
0.173101 0.058658 1.955817 0.515539 0.852030 0.090905 255 255 255 255
0.000000 0.160140 1.986339 0.515539 0.852030 0.090905 255 255 255 255
0.152222 0.058658 2.074225 0.515539 0.852030 0.090905 255 255 255 255
0.000000 -0.245786 1.986339 0.336493 -0.852030 0.401020 255 255 255 255
0.152222 -0.144304 2.074225 0.336493 -0.852030 0.401020 255 255 255 255
0.060117 -0.144304 2.151510 0.336493 -0.852030 0.401020 255 255 255 255
0.152222 -0.144304 2.074225 0.642785 0.000000 0.766046 255 255 255 255
0.152222 0.058658 2.074225 0.642785 0.000000 0.766046 255 255 255 255
0.060117 0.058658 2.151510 0.642785 0.000000 0.766046 255 255 255 255
0.060117 -0.144304 2.151510 0.642785 0.000000 0.766046 255 255 255 255
0.152222 0.058658 2.074225 0.336493 0.852030 0.401020 255 255 255 255
0.000000 0.160140 1.986339 0.336493 0.852030 0.401020 255 255 255 255
0.060117 0.058658 2.151510 0.336493 0.852030 0.401020 255 255 255 255
0.000000 -0.245786 1.986339 0.000000 -0.852030 0.523493 255 255 255 255
0.060117 -0.144304 2.151510 0.000000 -0.852030 0.523493 255 255 255 255
-0.060117 -0.144304 2.151510 0.000000 -0.852030 0.523493 255 255 255 255
0.060117 -0.144304 2.151510 -0.000000 0.000000 1.000000 255 255 255 255
0.060117 0.058658 2.151510 -0.000000 0.000000 1.000000 255 255 255 255
-0.060117 0.058658 2.151510 -0.000000 0.000000 1.000000 255 255 255 255
-0.060117 -0.144304 2.151510 -0.000000 0.000000 1.000000 255 255 255 255
0.060117 0.058658 2.151510 0.000000 0.852030 0.523492 255 255 255 255
0.000000 0.160140 1.986339 0.000000 0.852030 0.523492 255 255 255 255
-0.060117 0.058658 2.151510 0.000000 0.852030 0.523492 255 255 255 255
0.000000 -0.245786 1.986339 -0.336493 -0.852030 0.401020 255 255 255 255
-0.060117 -0.144304 2.151510 -0.336493 -0.852030 0.401020 255 255 255 255
-0.152222 -0.144304 2.074225 -0.336493 -0.852030 0.401020 255 255 255 255
-0.060117 -0.144304 2.151510 -0.642785 0.000000 0.766046 255 255 255 255
-0.060117 0.058658 2.151510 -0.642785 0.000000 0.766046 255 255 255 255
-0.152222 0.058658 2.074225 -0.642785 0.000000 0.766046 255 255 255 255
-0.152222 -0.144304 2.074225 -0.642785 0.000000 0.766046 255 255 255 255
-0.060117 0.058658 2.151510 -0.336493 0.852030 0.401020 255 255 255 255
0.000000 0.160140 1.986339 -0.336493 0.852030 0.401020 255 255 255 255
-0.152222 0.058658 2.074225 -0.336493 0.852030 0.401020 255 255 255 255
0.000000 -0.245786 1.986339 -0.515539 -0.852030 0.090905 255 255 255 255
-0.152222 -0.144304 2.074225 -0.515539 -0.852030 0.090905 255 255 255 255
-0.173101 -0.144304 1.955817 -0.515539 -0.852030 0.090905 255 255 255 255
-0.152222 -0.144304 2.074225 -0.984807 0.000000 0.173652 255 255 255 255
-0.152222 0.058658 2.074225 -0.984807 0.000000 0.173652 255 255 255 255
-0.173101 0.058658 1.955817 -0.984807 0.000000 0.173652 255 255 255 255
-0.173101 -0.144304 1.955817 -0.984807 0.000000 0.173652 255 255 255 255
-0.152222 0.058658 2.074225 -0.515539 0.852030 0.090905 255 255 255 255
0.000000 0.160140 1.986339 -0.515539 0.852030 0.090905 255 255 255 255
-0.173101 0.058658 1.955817 -0.515539 0.852030 0.090905 255 255 255 255
0.000000 -0.245786 1.986339 -0.453357 -0.852030 -0.261749 255 255 255 255
-0.173101 -0.144304 1.955817 -0.453357 -0.852030 -0.261749 255 255 255 255
-0.112983 -0.144304 1.851691 -0.453357 -0.852030 -0.261749 255 255 255 255
-0.173101 -0.144304 1.955817 -0.866022 0.000000 -0.500005 255 255 255 255
-0.173101 0.058658 1.955817 -0.866022 0.000000 -0.500005 255 255 255 255
-0.112983 0.058658 1.851691 -0.866022 0.000000 -0.500005 255 255 255 255
-0.112983 -0.144304 1.851691 -0.866022 0.000000 -0.500005 255 255 255 255
-0.173101 0.058658 1.955817 -0.453357 0.852030 -0.261749 255 255 255 255
0.000000 0.160140 1.986339 -0.453357 0.852030 -0.261749 255 255 255 255
-0.112983 0.058658 1.851691 -0.453357 0.852030 -0.261749 255 255 255 255
0.000000 -0.245786 1.986339 -0.179048 -0.852030 -0.491922 255 255 255 255
-0.112983 -0.144304 1.851691 -0.179048 -0.852030 -0.491922 255 255 255 255
0.000000 -0.144304 1.810568 -0.179048 -0.852030 -0.491922 255 255 255 255
-0.112983 -0.144304 1.851691 -0.342024 0.000000 -0.939691 255 255 255 255
-0.112983 0.058658 1.851691 -0.342024 0.000000 -0.939691 255 255 255 255
0.000000 0.058658 1.810568 -0.342024 0.000000 -0.939691 255 255 255 255
0.000000 -0.144304 1.810568 -0.342024 0.000000 -0.939691 255 255 255 255
-0.112983 0.058658 1.851691 -0.179048 0.852030 -0.491922 255 255 255 255
0.000000 0.160140 1.986339 -0.179048 0.852030 -0.491922 255 255 255 255
0.000000 0.058658 1.810568 -0.179048 0.852030 -0.491922 255 255 255 255
0.394683 -0.823412 2.029577 0.010728 0.001786 0.999941 255 255 255 255
0.294026 -0.218674 2.029577 0.010728 0.001786 0.999941 255 255 255 255
0.200334 -0.234269 2.030610 0.010728 0.001786 0.999941 255 255 255 255
0.300991 -0.839006 2.030610 0.010728 0.001786 0.999941 255 255 255 255
0.300991 -0.839006 2.030610 -0.986425 -0.164188 0.002702 255 255 255 255
0.200334 -0.234269 2.030610 -0.986425 -0.164188 0.002702 255 255 255 255
0.200078 -0.234312 1.934530 -0.986425 -0.164188 0.002702 255 255 255 255
0.300735 -0.839049 1.934530 -0.986425 -0.164188 0.002702 255 255 255 255
0.300735 -0.839049 1.934530 -0.010728 -0.001786 -0.999941 255 255 255 255
0.200078 -0.234312 1.934530 -0.010728 -0.001786 -0.999941 255 255 255 255
0.293770 -0.218717 1.933497 -0.010728 -0.001786 -0.999941 255 255 255 255
0.394427 -0.823454 1.933497 -0.010728 -0.001786 -0.999941 255 255 255 255
0.394427 -0.823454 1.933497 0.986425 0.164188 -0.002701 255 255 255 255
0.293770 -0.218717 1.933497 0.986425 0.164188 -0.002701 255 255 255 255
0.294026 -0.218674 2.029577 0.986425 0.164188 -0.002701 255 255 255 255
0.394683 -0.823412 2.029577 0.986425 0.164188 -0.002701 255 255 255 255
0.300991 -0.839006 2.030610 0.164186 -0.986429 -0.000001 255 255 255 255
0.300735 -0.839049 1.934530 0.164186 -0.986429 -0.000001 255 255 255 255
0.394427 -0.823454 1.933497 0.164186 -0.986429 -0.000001 255 255 255 255
0.394683 -0.823412 2.029577 0.164186 -0.986429 -0.000001 255 255 255 255
0.200078 -0.234312 1.934530 -0.164191 0.986429 -0.000004 255 255 255 255
0.200334 -0.234269 2.030610 -0.164191 0.986429 -0.000004 255 255 255 255
0.294026 -0.218674 2.029577 -0.164191 0.986429 -0.000004 255 255 255 255
0.293770 -0.218717 1.933497 -0.164191 0.986429 -0.000004 255 255 255 255
-0.394427 -0.823454 1.933497 0.010728 -0.001786 -0.999941 255 255 255 255
-0.293770 -0.218717 1.933497 0.010728 -0.001786 -0.999941 255 255 255 255
-0.200078 -0.234312 1.934530 0.010728 -0.001786 -0.999941 255 255 255 255
-0.300735 -0.839049 1.934530 0.010728 -0.001786 -0.999941 255 255 255 255
-0.300735 -0.839049 1.934530 0.986425 -0.164188 0.002702 255 255 255 255
-0.200078 -0.234312 1.934530 0.986425 -0.164188 0.002702 255 255 255 255
-0.200334 -0.234269 2.030610 0.986425 -0.164188 0.002702 255 255 255 255
-0.300991 -0.839006 2.030610 0.986425 -0.164188 0.002702 255 255 255 255
-0.300991 -0.839006 2.030610 -0.010728 0.001786 0.999941 255 255 255 255
-0.200334 -0.234269 2.030610 -0.010728 0.001786 0.999941 255 255 255 255
-0.294026 -0.218674 2.029577 -0.010728 0.001786 0.999941 255 255 255 255
-0.394683 -0.823412 2.029577 -0.010728 0.001786 0.999941 255 255 255 255
-0.394683 -0.823412 2.029577 -0.986425 0.164188 -0.002701 255 255 255 255
-0.294026 -0.218674 2.029577 -0.986425 0.164188 -0.002701 255 255 255 255
-0.293770 -0.218717 1.933497 -0.986425 0.164188 -0.002701 255 255 255 255
-0.394427 -0.823454 1.933497 -0.986425 0.164188 -0.002701 255 255 255 255
-0.300735 -0.839049 1.934530 -0.164186 -0.986429 -0.000001 255 255 255 255
-0.300991 -0.839006 2.030610 -0.164186 -0.986429 -0.000001 255 255 255 255
-0.394683 -0.823412 2.029577 -0.164186 -0.986429 -0.000001 255 255 255 255
-0.394427 -0.823454 1.933497 -0.164186 -0.986429 -0.000001 255 255 255 255
-0.200334 -0.234269 2.030610 0.164191 0.986429 -0.000004 255 255 255 255
-0.200078 -0.234312 1.934530 0.164191 0.986429 -0.000004 255 255 255 255
-0.293770 -0.218717 1.933497 0.164191 0.986429 -0.000004 255 255 255 255
-0.294026 -0.218674 2.029577 0.164191 0.986429 -0.000004 255 255 255 255
-0.394427 -0.823454 1.933497 0.010728 -0.001786 -0.999941 255 255 255 255
-0.293770 -0.218717 1.933497 0.010728 -0.001786 -0.999941 255 255 255 255
-0.200078 -0.234312 1.934530 0.010728 -0.001786 -0.999941 255 255 255 255
-0.300735 -0.839049 1.934530 0.010728 -0.001786 -0.999941 255 255 255 255
-0.300735 -0.839049 1.934530 0.986425 -0.164188 0.002702 255 255 255 255
-0.200078 -0.234312 1.934530 0.986425 -0.164188 0.002702 255 255 255 255
-0.200334 -0.234269 2.030610 0.986425 -0.164188 0.002702 255 255 255 255
-0.300991 -0.839006 2.030610 0.986425 -0.164188 0.002702 255 255 255 255
-0.300991 -0.839006 2.030610 -0.010728 0.001786 0.999941 255 255 255 255
-0.200334 -0.234269 2.030610 -0.010728 0.001786 0.999941 255 255 255 255
-0.294026 -0.218674 2.029577 -0.010728 0.001786 0.999941 255 255 255 255
-0.394683 -0.823412 2.029577 -0.010728 0.001786 0.999941 255 255 255 255
-0.394683 -0.823412 2.029577 -0.986425 0.164188 -0.002701 255 255 255 255
-0.294026 -0.218674 2.029577 -0.986425 0.164188 -0.002701 255 255 255 255
-0.293770 -0.218717 1.933497 -0.986425 0.164188 -0.002701 255 255 255 255
-0.394427 -0.823454 1.933497 -0.986425 0.164188 -0.002701 255 255 255 255
-0.300735 -0.839049 1.934530 -0.164186 -0.986429 -0.000001 255 255 255 255
-0.300991 -0.839006 2.030610 -0.164186 -0.986429 -0.000001 255 255 255 255
-0.394683 -0.823412 2.029577 -0.164186 -0.986429 -0.000001 255 255 255 255
-0.394427 -0.823454 1.933497 -0.164186 -0.986429 -0.000001 255 255 255 255
-0.200334 -0.234269 2.030610 0.164191 0.986429 -0.000004 255 255 255 255
-0.200078 -0.234312 1.934530 0.164191 0.986429 -0.000004 255 255 255 255
-0.293770 -0.218717 1.933497 0.164191 0.986429 -0.000004 255 255 255 255
-0.294026 -0.218674 2.029577 0.164191 0.986429 -0.000004 255 255 255 255
0.135031 -0.906311 2.086329 0.000000 -0.066038 0.997817 255 255 255 255
0.195752 -0.226919 2.131293 0.000000 -0.066038 0.997817 255 255 255 255
-0.195752 -0.226919 2.131293 0.000000 -0.066038 0.997817 255 255 255 255
-0.135031 -0.906311 2.086329 0.000000 -0.066038 0.997817 255 255 255 255
-0.135031 -0.906311 2.086329 -0.996030 -0.089021 0.000000 255 255 255 255
-0.195752 -0.226919 2.131293 -0.996030 -0.089021 0.000000 255 255 255 255
-0.195752 -0.226919 1.841385 -0.996030 -0.089021 0.000000 255 255 255 255
-0.135031 -0.906311 1.886349 -0.996030 -0.089021 0.000000 255 255 255 255
-0.135031 -0.906311 1.886349 0.000000 -0.066038 -0.997817 255 255 255 255
-0.195752 -0.226919 1.841385 0.000000 -0.066038 -0.997817 255 255 255 255
0.195752 -0.226919 1.841385 0.000000 -0.066038 -0.997817 255 255 255 255
0.135031 -0.906311 1.886349 0.000000 -0.066038 -0.997817 255 255 255 255
0.135031 -0.906311 1.886349 0.996030 -0.089021 0.000000 255 255 255 255
0.195752 -0.226919 1.841385 0.996030 -0.089021 0.000000 255 255 255 255
0.195752 -0.226919 2.131293 0.996030 -0.089021 0.000000 255 255 255 255
0.135031 -0.906311 2.086329 0.996030 -0.089021 0.000000 255 255 255 255
-0.135031 -0.906311 2.086329 -0.000000 -1.000000 0.000000 255 255 255 255
-0.135031 -0.906311 1.886349 -0.000000 -1.000000 0.000000 255 255 255 255
0.135031 -0.906311 1.886349 -0.000000 -1.000000 0.000000 255 255 255 255
0.135031 -0.906311 2.086329 -0.000000 -1.000000 0.000000 255 255 255 255
-0.195752 -0.226919 1.841385 0.000000 1.000000 0.000000 255 255 255 255
-0.195752 -0.226919 2.131293 0.000000 1.000000 0.000000 255 255 255 255
0.195752 -0.226919 2.131293 0.000000 1.000000 0.000000 255 255 255 255
0.195752 -0.226919 1.841385 0.000000 1.000000 0.000000 255 255 255 255
0.280140 -1.579822 2.030864 0.010728 0.001786 0.999941 255 255 255 255
0.151813 -0.808843 2.030864 0.010728 0.001786 0.999941 255 255 255 255
0.032365 -0.828725 2.032181 0.010728 0.001786 0.999941 255 255 255 255
0.160693 -1.599703 2.032181 0.010728 0.001786 0.999941 255 255 255 255
0.160693 -1.599703 2.032181 -0.986425 -0.164188 0.002702 255 255 255 255
0.032365 -0.828725 2.032181 -0.986425 -0.164188 0.002702 255 255 255 255
0.032039 -0.828779 1.909689 -0.986425 -0.164188 0.002702 255 255 255 255
0.160366 -1.599758 1.909689 -0.986425 -0.164188 0.002702 255 255 255 255
0.160366 -1.599758 1.909689 -0.010728 -0.001786 -0.999941 255 255 255 255
0.032039 -0.828779 1.909689 -0.010728 -0.001786 -0.999941 255 255 255 255
0.151486 -0.808898 1.908372 -0.010728 -0.001786 -0.999941 255 255 255 255
0.279813 -1.579876 1.908372 -0.010728 -0.001786 -0.999941 255 255 255 255
0.279813 -1.579876 1.908372 0.986425 0.164188 -0.002707 255 255 255 255
0.151486 -0.808898 1.908372 0.986425 0.164188 -0.002707 255 255 255 255
0.151813 -0.808843 2.030864 0.986425 0.164188 -0.002707 255 255 255 255
0.280140 -1.579822 2.030864 0.986425 0.164188 -0.002707 255 255 255 255
0.160693 -1.599703 2.032181 0.164187 -0.986429 0.000000 255 255 255 255
0.160366 -1.599758 1.909689 0.164187 -0.986429 0.000000 255 255 255 255
0.279813 -1.579876 1.908372 0.164187 -0.986429 0.000000 255 255 255 255
0.280140 -1.579822 2.030864 0.164187 -0.986429 0.000000 255 255 255 255
0.032039 -0.828779 1.909689 -0.164187 0.986429 -0.000001 255 255 255 255
0.032365 -0.828725 2.032181 -0.164187 0.986429 -0.000001 255 255 255 255
0.151813 -0.808843 2.030864 -0.164187 0.986429 -0.000001 255 255 255 255
0.151486 -0.808898 1.908372 -0.164187 0.986429 -0.000001 255 255 255 255
-0.279813 -1.579876 1.908372 0.010728 -0.001786 -0.999941 255 255 255 255
-0.151486 -0.808898 1.908372 0.010728 -0.001786 -0.999941 255 255 255 255
-0.032039 -0.828779 1.909689 0.010728 -0.001786 -0.999941 255 255 255 255
-0.160366 -1.599758 1.909689 0.010728 -0.001786 -0.999941 255 255 255 255
-0.160366 -1.599758 1.909689 0.986425 -0.164188 0.002702 255 255 255 255
-0.032039 -0.828779 1.909689 0.986425 -0.164188 0.002702 255 255 255 255
-0.032365 -0.828725 2.032181 0.986425 -0.164188 0.002702 255 255 255 255
-0.160693 -1.599703 2.032181 0.986425 -0.164188 0.002702 255 255 255 255
-0.160693 -1.599703 2.032181 -0.010728 0.001786 0.999941 255 255 255 255
-0.032365 -0.828725 2.032181 -0.010728 0.001786 0.999941 255 255 255 255
-0.151813 -0.808843 2.030864 -0.010728 0.001786 0.999941 255 255 255 255
-0.280140 -1.579822 2.030864 -0.010728 0.001786 0.999941 255 255 255 255
-0.280140 -1.579822 2.030864 -0.986425 0.164188 -0.002707 255 255 255 255
-0.151813 -0.808843 2.030864 -0.986425 0.164188 -0.002707 255 255 255 255
-0.151486 -0.808898 1.908372 -0.986425 0.164188 -0.002707 255 255 255 255
-0.279813 -1.579876 1.908372 -0.986425 0.164188 -0.002707 255 255 255 255
-0.160366 -1.599758 1.909689 -0.164187 -0.986429 0.000000 255 255 255 255
-0.160693 -1.599703 2.032181 -0.164187 -0.986429 0.000000 255 255 255 255
-0.280140 -1.579822 2.030864 -0.164187 -0.986429 0.000000 255 255 255 255
-0.279813 -1.579876 1.908372 -0.164187 -0.986429 0.000000 255 255 255 255
-0.032365 -0.828725 2.032181 0.164187 0.986429 -0.000001 255 255 255 255
-0.032039 -0.828779 1.909689 0.164187 0.986429 -0.000001 255 255 255 255
-0.151486 -0.808898 1.908372 0.164187 0.986429 -0.000001 255 255 255 255
-0.151813 -0.808843 2.030864 0.164187 0.986429 -0.000001 255 255 255 255
-0.279813 -1.579876 1.908372 0.010728 -0.001786 -0.999941 255 255 255 255
-0.151486 -0.808898 1.908372 0.010728 -0.001786 -0.999941 255 255 255 255
-0.032039 -0.828779 1.909689 0.010728 -0.001786 -0.999941 255 255 255 255
-0.160366 -1.599758 1.909689 0.010728 -0.001786 -0.999941 255 255 255 255
-0.160366 -1.599758 1.909689 0.986425 -0.164188 0.002702 255 255 255 255
-0.032039 -0.828779 1.909689 0.986425 -0.164188 0.002702 255 255 255 255
-0.032365 -0.828725 2.032181 0.986425 -0.164188 0.002702 255 255 255 255
-0.160693 -1.599703 2.032181 0.986425 -0.164188 0.002702 255 255 255 255
-0.160693 -1.599703 2.032181 -0.010728 0.001786 0.999941 255 255 255 255
-0.032365 -0.828725 2.032181 -0.010728 0.001786 0.999941 255 255 255 255
-0.151813 -0.808843 2.030864 -0.010728 0.001786 0.999941 255 255 255 255
-0.280140 -1.579822 2.030864 -0.010728 0.001786 0.999941 255 255 255 255
-0.280140 -1.579822 2.030864 -0.986425 0.164188 -0.002707 255 255 255 255
-0.151813 -0.808843 2.030864 -0.986425 0.164188 -0.002707 255 255 255 255
-0.151486 -0.808898 1.908372 -0.986425 0.164188 -0.002707 255 255 255 255
-0.279813 -1.579876 1.908372 -0.986425 0.164188 -0.002707 255 255 255 255
-0.160366 -1.599758 1.909689 -0.164187 -0.986429 0.000000 255 255 255 255
-0.160693 -1.599703 2.032181 -0.164187 -0.986429 0.000000 255 255 255 255
-0.280140 -1.579822 2.030864 -0.164187 -0.986429 0.000000 255 255 255 255
-0.279813 -1.579876 1.908372 -0.164187 -0.986429 0.000000 255 255 255 255
-0.032365 -0.828725 2.032181 0.164187 0.986429 -0.000001 255 255 255 255
-0.032039 -0.828779 1.909689 0.164187 0.986429 -0.000001 255 255 255 255
-0.151486 -0.808898 1.908372 0.164187 0.986429 -0.000001 255 255 255 255
-0.151813 -0.808843 2.030864 0.164187 0.986429 -0.000001 255 255 255 255
4 0 1 2 3
4 4 5 6 7
4 8 9 10 11
5 12 13 14 15 16
4 17 18 19 20
4 21 22 23 24
4 25 26 27 28
4 29 30 31 32
4 33 34 35 36
4 37 38 39 40
4 29 41 42 30
4 4 7 43 44
4 45 46 47 48
4 49 50 51 52
4 53 54 55 56
4 57 58 59 60
4 61 62 63 64
4 65 66 67 68
4 69 70 71 72
4 73 74 75 76
4 77 78 79 80
4 81 82 83 84
5 85 86 87 88 89
4 8 11 90 91
4 92 93 94 95
4 96 97 51 50
3 98 99 100
4 101 102 103 104
3 105 106 107
3 108 109 110
4 111 112 113 114
3 115 116 117
3 118 119 120
4 121 122 123 124
3 125 126 127
3 128 129 130
4 131 132 133 134
3 135 136 137
3 138 139 140
4 141 142 143 144
3 145 146 147
3 148 149 150
4 151 152 153 154
3 155 156 157
3 158 159 160
4 161 162 163 164
3 165 166 167
3 168 169 170
4 171 172 173 174
3 175 176 177
3 178 179 180
4 181 182 183 184
3 185 186 187
4 188 189 190 191
4 192 193 194 195
4 196 197 198 199
4 200 201 202 203
4 204 205 206 207
4 208 209 210 211
4 212 213 214 215
4 216 217 218 219
4 220 221 222 223
4 224 225 226 227
4 228 229 230 231
4 232 233 234 235
4 236 237 238 239
4 240 241 242 243
4 244 245 246 247
4 248 249 250 251
4 252 253 254 255
4 256 257 258 259
4 260 261 262 263
4 264 265 266 267
4 268 269 270 271
4 272 273 274 275
4 276 277 278 279
4 280 281 282 283
4 284 285 286 287
4 288 289 290 291
4 292 293 294 295
4 296 297 298 299
4 300 301 302 303
4 304 305 306 307
4 308 309 310 311
4 312 313 314 315
4 316 317 318 319
4 320 321 322 323
4 324 325 326 327
4 328 329 330 331
4 332 333 334 335
4 336 337 338 339
4 340 341 342 343
4 344 345 346 347
4 348 349 350 351
4 352 353 354 355
