ply
format ascii 1.0
comment Created by Blender 2.82 (sub 7) - www.blender.org, source file: 'k-49rHauler.blend'
element vertex 352
property float x
property float y
property float z
property float nx
property float ny
property float nz
element face 95
property list uchar uint vertex_indices
end_header
3.726986 0.458537 3.719043 -0.868967 0.494871 -0.000004
1.881261 -2.782460 3.719043 -0.868967 0.494871 -0.000004
1.766522 -2.983930 3.950895 -0.868967 0.494871 -0.000004
3.841678 0.659930 3.950895 -0.868967 0.494871 -0.000004
0.000000 -2.983930 3.950895 0.000000 -0.000000 -1.000000
-1.766522 -2.983930 3.950895 0.000000 -0.000000 -1.000000
-3.841678 0.659930 3.950895 0.000000 -0.000000 -1.000000
0.000000 0.659930 3.950895 0.000000 -0.000000 -1.000000
0.000000 -2.983930 -1.766522 0.000000 1.000000 0.000000
-1.766522 -2.983930 -1.766522 0.000000 1.000000 0.000000
-1.766522 -2.983930 3.950895 0.000000 1.000000 0.000000
0.000000 -2.983930 3.950895 0.000000 1.000000 0.000000
3.842795 0.661794 -1.649720 0.000654 -1.000000 0.000323
3.841678 0.659930 3.950895 0.000654 -1.000000 0.000323
0.000000 0.659930 3.950895 0.000654 -1.000000 0.000323
0.000000 0.656168 -3.498745 0.000654 -1.000000 0.000323
1.766522 0.656168 -3.498745 0.000654 -1.000000 0.000323
3.578788 0.476646 -1.797066 -0.627211 0.334671 0.703279
1.919055 -2.437676 -1.890435 -0.627211 0.334671 0.703279
1.766522 -2.983930 -1.766522 -0.627211 0.334671 0.703279
3.842795 0.661794 -1.649720 -0.627211 0.334671 0.703279
-1.577395 0.485392 -3.417478 -0.000000 0.429700 0.902972
-1.766522 0.656168 -3.498745 -0.000000 0.429700 0.902972
-1.766522 -2.983930 -1.766522 -0.000000 0.429700 0.902972
-1.577395 -2.813153 -1.847790 -0.000000 0.429700 0.902972
1.881259 -2.782459 -1.528126 -0.868960 0.494882 -0.000004
3.728013 0.460247 -1.424236 -0.868960 0.494882 -0.000004
3.842795 0.661794 -1.649720 -0.868960 0.494882 -0.000004
1.766522 -2.983930 -1.766522 -0.868960 0.494882 -0.000004
0.000000 0.485392 -3.417478 0.000000 0.429699 0.902972
0.000000 0.656168 -3.498745 0.000000 0.429699 0.902972
-1.766522 0.656168 -3.498745 0.000000 0.429699 0.902972
-1.577395 0.485392 -3.417478 0.000000 0.429699 0.902972
1.919055 0.472149 -3.275141 -0.627211 0.334671 0.703279
1.766522 0.656168 -3.498745 -0.627211 0.334671 0.703279
1.577395 0.485392 -3.417478 0.000000 0.429700 0.902972
1.577395 -2.813153 -1.847790 0.000000 0.429700 0.902972
1.766522 -2.983930 -1.766522 0.000000 0.429700 0.902972
1.766522 0.656168 -3.498745 0.000000 0.429700 0.902972
1.577395 0.485392 -3.417478 0.000000 0.429699 0.902972
1.766522 0.656168 -3.498745 0.000000 0.429699 0.902972
3.841678 0.659930 3.950895 -0.000000 0.000000 -1.000000
1.766522 -2.983930 3.950895 -0.000000 0.000000 -1.000000
1.881261 -2.782460 3.719043 -0.868964 0.494876 0.000000
1.881259 -2.782459 -1.528126 -0.868964 0.494876 0.000000
1.766522 -2.983930 -1.766522 -0.868964 0.494876 0.000000
1.766522 -2.983930 3.950895 -0.868964 0.494876 0.000000
1.577395 -2.813153 -1.847790 0.000000 0.429699 0.902972
0.000000 -2.813153 -1.847790 0.000000 0.429699 0.902972
0.000000 -2.983930 -1.766522 0.000000 0.429699 0.902972
1.766522 -2.983930 -1.766522 0.000000 0.429699 0.902972
3.728013 0.460247 -1.424236 -0.868963 0.494876 -0.000009
3.726986 0.458537 3.719043 -0.868963 0.494876 -0.000009
3.841678 0.659930 3.950895 -0.868963 0.494876 -0.000009
3.842795 0.661794 -1.649720 -0.868963 0.494876 -0.000009
-3.578788 0.476646 -1.797066 0.627211 0.334671 0.703279
-3.842795 0.661794 -1.649720 0.627211 0.334671 0.703279
-1.766522 -2.983930 -1.766522 0.627211 0.334671 0.703279
-1.919055 -2.437676 -1.890435 0.627211 0.334671 0.703279
-1.919055 -2.437676 -1.890435 0.627212 0.334671 0.703279
-1.766522 -2.983930 -1.766522 0.627212 0.334671 0.703279
-1.766522 0.656168 -3.498745 0.627212 0.334671 0.703279
-1.919055 0.472149 -3.275141 0.627212 0.334671 0.703279
-1.919055 0.472149 -3.275141 0.627211 0.334671 0.703279
-1.766522 0.656168 -3.498745 0.627211 0.334671 0.703279
-1.881261 -2.782460 3.719043 0.868964 0.494876 0.000000
-1.766522 -2.983930 3.950895 0.868964 0.494876 0.000000
-1.766522 -2.983930 -1.766522 0.868964 0.494876 0.000000
-1.881259 -2.782459 -1.528126 0.868964 0.494876 0.000000
-3.726986 0.458537 3.719043 0.868967 0.494871 -0.000004
-3.841678 0.659930 3.950895 0.868967 0.494871 -0.000004
-1.766522 -2.983930 3.950895 0.868967 0.494871 -0.000004
-1.881261 -2.782460 3.719043 0.868967 0.494871 -0.000004
-1.881259 -2.782459 -1.528126 0.868960 0.494882 -0.000004
-1.766522 -2.983930 -1.766522 0.868960 0.494882 -0.000004
-3.842795 0.661794 -1.649720 0.868960 0.494882 -0.000004
-3.728013 0.460247 -1.424236 0.868960 0.494882 -0.000004
-3.728013 0.460247 -1.424236 0.868963 0.494876 -0.000009
-3.842795 0.661794 -1.649720 0.868963 0.494876 -0.000009
-3.841678 0.659930 3.950895 0.868963 0.494876 -0.000009
-3.726986 0.458537 3.719043 0.868963 0.494876 -0.000009
-3.842795 0.661794 -1.649720 -0.000654 -1.000000 0.000323
-1.766522 0.656168 -3.498745 -0.000654 -1.000000 0.000323
0.000000 0.656168 -3.498745 -0.000654 -1.000000 0.000323
0.000000 0.659930 3.950895 -0.000654 -1.000000 0.000323
-3.841678 0.659930 3.950895 -0.000654 -1.000000 0.000323
1.766522 -2.983930 3.950895 0.000000 1.000000 0.000000
1.766522 -2.983930 -1.766522 0.000000 1.000000 0.000000
1.919055 -2.437676 -1.890435 -0.627212 0.334671 0.703279
1.919055 0.472149 -3.275141 -0.627212 0.334671 0.703279
1.766522 0.656168 -3.498745 -0.627212 0.334671 0.703279
1.766522 -2.983930 -1.766522 -0.627212 0.334671 0.703279
-1.577395 -2.813153 -1.847790 0.000000 0.429699 0.902972
-1.766522 -2.983930 -1.766522 0.000000 0.429699 0.902972
0.000000 -1.659077 0.000000 0.179047 -0.852030 -0.491922
0.000000 -1.557595 -0.175771 0.179047 -0.852030 -0.491922
0.112983 -1.557595 -0.134648 0.179047 -0.852030 -0.491922
0.000000 -1.557595 -0.175771 0.342024 0.000000 -0.939691
0.000000 -1.354633 -0.175771 0.342024 0.000000 -0.939691
0.112983 -1.354633 -0.134648 0.342024 0.000000 -0.939691
0.112983 -1.557595 -0.134648 0.342024 0.000000 -0.939691
0.000000 -1.354633 -0.175771 0.179048 0.852030 -0.491922
0.000000 -1.253151 0.000000 0.179048 0.852030 -0.491922
0.112983 -1.354633 -0.134648 0.179048 0.852030 -0.491922
0.000000 -1.659077 0.000000 0.453357 -0.852030 -0.261749
0.112983 -1.557595 -0.134648 0.453357 -0.852030 -0.261749
0.173101 -1.557595 -0.030522 0.453357 -0.852030 -0.261749
0.112983 -1.557595 -0.134648 0.866022 0.000000 -0.500005
0.112983 -1.354633 -0.134648 0.866022 0.000000 -0.500005
0.173101 -1.354633 -0.030522 0.866022 0.000000 -0.500005
0.173101 -1.557595 -0.030522 0.866022 0.000000 -0.500005
0.112983 -1.354633 -0.134648 0.453357 0.852030 -0.261749
0.000000 -1.253151 0.000000 0.453357 0.852030 -0.261749
0.173101 -1.354633 -0.030522 0.453357 0.852030 -0.261749
0.000000 -1.659077 0.000000 0.515539 -0.852030 0.090906
0.173101 -1.557595 -0.030522 0.515539 -0.852030 0.090906
0.152222 -1.557595 0.087886 0.515539 -0.852030 0.090906
0.173101 -1.557595 -0.030522 0.984807 0.000000 0.173652
0.173101 -1.354633 -0.030522 0.984807 0.000000 0.173652
0.152222 -1.354633 0.087886 0.984807 0.000000 0.173652
0.152222 -1.557595 0.087886 0.984807 0.000000 0.173652
0.173101 -1.354633 -0.030522 0.515539 0.852030 0.090906
0.000000 -1.253151 0.000000 0.515539 0.852030 0.090906
0.152222 -1.354633 0.087886 0.515539 0.852030 0.090906
0.000000 -1.659077 0.000000 0.336494 -0.852030 0.401019
0.152222 -1.557595 0.087886 0.336494 -0.852030 0.401019
0.060117 -1.557595 0.165171 0.336494 -0.852030 0.401019
0.152222 -1.557595 0.087886 0.642786 0.000000 0.766046
0.152222 -1.354633 0.087886 0.642786 0.000000 0.766046
0.060117 -1.354633 0.165171 0.642786 0.000000 0.766046
0.060117 -1.557595 0.165171 0.642786 0.000000 0.766046
0.152222 -1.354633 0.087886 0.336494 0.852030 0.401019
0.000000 -1.253151 0.000000 0.336494 0.852030 0.401019
0.060117 -1.354633 0.165171 0.336494 0.852030 0.401019
0.000000 -1.659077 0.000000 0.000000 -0.852030 0.523492
0.060117 -1.557595 0.165171 0.000000 -0.852030 0.523492
-0.060117 -1.557595 0.165171 0.000000 -0.852030 0.523492
0.060117 -1.557595 0.165171 -0.000000 0.000000 1.000000
0.060117 -1.354633 0.165171 -0.000000 0.000000 1.000000
-0.060117 -1.354633 0.165171 -0.000000 0.000000 1.000000
-0.060117 -1.557595 0.165171 -0.000000 0.000000 1.000000
0.060117 -1.354633 0.165171 0.000000 0.852030 0.523492
0.000000 -1.253151 0.000000 0.000000 0.852030 0.523492
-0.060117 -1.354633 0.165171 0.000000 0.852030 0.523492
0.000000 -1.659077 0.000000 -0.336494 -0.852030 0.401019
-0.060117 -1.557595 0.165171 -0.336494 -0.852030 0.401019
-0.152222 -1.557595 0.087886 -0.336494 -0.852030 0.401019
-0.060117 -1.557595 0.165171 -0.642786 0.000000 0.766046
-0.060117 -1.354633 0.165171 -0.642786 0.000000 0.766046
-0.152222 -1.354633 0.087886 -0.642786 0.000000 0.766046
-0.152222 -1.557595 0.087886 -0.642786 0.000000 0.766046
-0.060117 -1.354633 0.165171 -0.336494 0.852030 0.401019
0.000000 -1.253151 0.000000 -0.336494 0.852030 0.401019
-0.152222 -1.354633 0.087886 -0.336494 0.852030 0.401019
0.000000 -1.659077 0.000000 -0.515539 -0.852030 0.090906
-0.152222 -1.557595 0.087886 -0.515539 -0.852030 0.090906
-0.173101 -1.557595 -0.030522 -0.515539 -0.852030 0.090906
-0.152222 -1.557595 0.087886 -0.984807 0.000000 0.173652
-0.152222 -1.354633 0.087886 -0.984807 0.000000 0.173652
-0.173101 -1.354633 -0.030522 -0.984807 0.000000 0.173652
-0.173101 -1.557595 -0.030522 -0.984807 0.000000 0.173652
-0.152222 -1.354633 0.087886 -0.515539 0.852030 0.090906
0.000000 -1.253151 0.000000 -0.515539 0.852030 0.090906
-0.173101 -1.354633 -0.030522 -0.515539 0.852030 0.090906
0.000000 -1.659077 0.000000 -0.453357 -0.852030 -0.261749
-0.173101 -1.557595 -0.030522 -0.453357 -0.852030 -0.261749
-0.112983 -1.557595 -0.134648 -0.453357 -0.852030 -0.261749
-0.173101 -1.557595 -0.030522 -0.866022 0.000000 -0.500005
-0.173101 -1.354633 -0.030522 -0.866022 0.000000 -0.500005
-0.112983 -1.354633 -0.134648 -0.866022 0.000000 -0.500005
-0.112983 -1.557595 -0.134648 -0.866022 0.000000 -0.500005
-0.173101 -1.354633 -0.030522 -0.453357 0.852030 -0.261749
0.000000 -1.253151 0.000000 -0.453357 0.852030 -0.261749
-0.112983 -1.354633 -0.134648 -0.453357 0.852030 -0.261749
0.000000 -1.659077 0.000000 -0.179047 -0.852030 -0.491922
-0.112983 -1.557595 -0.134648 -0.179047 -0.852030 -0.491922
0.000000 -1.557595 -0.175771 -0.179047 -0.852030 -0.491922
-0.112983 -1.557595 -0.134648 -0.342024 0.000000 -0.939691
-0.112983 -1.354633 -0.134648 -0.342024 0.000000 -0.939691
0.000000 -1.354633 -0.175771 -0.342024 0.000000 -0.939691
0.000000 -1.557595 -0.175771 -0.342024 0.000000 -0.939691
-0.112983 -1.354633 -0.134648 -0.179048 0.852030 -0.491922
0.000000 -1.253151 0.000000 -0.179048 0.852030 -0.491922
0.000000 -1.354633 -0.175771 -0.179048 0.852030 -0.491922
0.394683 -2.236703 0.043238 0.010728 0.001786 0.999941
0.294026 -1.631965 0.043238 0.010728 0.001786 0.999941
0.200334 -1.647560 0.044271 0.010728 0.001786 0.999941
0.300991 -2.252297 0.044271 0.010728 0.001786 0.999941
0.300991 -2.252297 0.044271 -0.986425 -0.164188 0.002702
0.200334 -1.647560 0.044271 -0.986425 -0.164188 0.002702
0.200078 -1.647603 -0.051809 -0.986425 -0.164188 0.002702
0.300735 -2.252340 -0.051809 -0.986425 -0.164188 0.002702
0.300735 -2.252340 -0.051809 -0.010728 -0.001786 -0.999941
0.200078 -1.647603 -0.051809 -0.010728 -0.001786 -0.999941
0.293770 -1.632008 -0.052842 -0.010728 -0.001786 -0.999941
0.394427 -2.236745 -0.052842 -0.010728 -0.001786 -0.999941
0.394427 -2.236745 -0.052842 0.986425 0.164188 -0.002701
0.293770 -1.632008 -0.052842 0.986425 0.164188 -0.002701
0.294026 -1.631965 0.043238 0.986425 0.164188 -0.002701
0.394683 -2.236703 0.043238 0.986425 0.164188 -0.002701
0.300991 -2.252297 0.044271 0.164185 -0.986430 -0.000002
0.300735 -2.252340 -0.051809 0.164185 -0.986430 -0.000002
0.394427 -2.236745 -0.052842 0.164185 -0.986430 -0.000002
0.394683 -2.236703 0.043238 0.164185 -0.986430 -0.000002
0.200078 -1.647603 -0.051809 -0.164190 0.986429 -0.000004
0.200334 -1.647560 0.044271 -0.164190 0.986429 -0.000004
0.294026 -1.631965 0.043238 -0.164190 0.986429 -0.000004
0.293770 -1.632008 -0.052842 -0.164190 0.986429 -0.000004
-0.394427 -2.236745 -0.052842 0.010728 -0.001786 -0.999941
-0.293770 -1.632008 -0.052842 0.010728 -0.001786 -0.999941
-0.200078 -1.647603 -0.051809 0.010728 -0.001786 -0.999941
-0.300735 -2.252340 -0.051809 0.010728 -0.001786 -0.999941
-0.300735 -2.252340 -0.051809 0.986425 -0.164188 0.002702
-0.200078 -1.647603 -0.051809 0.986425 -0.164188 0.002702
-0.200334 -1.647560 0.044271 0.986425 -0.164188 0.002702
-0.300991 -2.252297 0.044271 0.986425 -0.164188 0.002702
-0.300991 -2.252297 0.044271 -0.010728 0.001786 0.999941
-0.200334 -1.647560 0.044271 -0.010728 0.001786 0.999941
-0.294026 -1.631965 0.043238 -0.010728 0.001786 0.999941
-0.394683 -2.236703 0.043238 -0.010728 0.001786 0.999941
-0.394683 -2.236703 0.043238 -0.986425 0.164188 -0.002701
-0.294026 -1.631965 0.043238 -0.986425 0.164188 -0.002701
-0.293770 -1.632008 -0.052842 -0.986425 0.164188 -0.002701
-0.394427 -2.236745 -0.052842 -0.986425 0.164188 -0.002701
-0.300735 -2.252340 -0.051809 -0.164185 -0.986430 -0.000002
-0.300991 -2.252297 0.044271 -0.164185 -0.986430 -0.000002
-0.394683 -2.236703 0.043238 -0.164185 -0.986430 -0.000002
-0.394427 -2.236745 -0.052842 -0.164185 -0.986430 -0.000002
-0.200334 -1.647560 0.044271 0.164190 0.986429 -0.000004
-0.200078 -1.647603 -0.051809 0.164190 0.986429 -0.000004
-0.293770 -1.632008 -0.052842 0.164190 0.986429 -0.000004
-0.294026 -1.631965 0.043238 0.164190 0.986429 -0.000004
-0.394427 -2.236745 -0.052842 0.010728 -0.001786 -0.999941
-0.293770 -1.632008 -0.052842 0.010728 -0.001786 -0.999941
-0.200078 -1.647603 -0.051809 0.010728 -0.001786 -0.999941
-0.300735 -2.252340 -0.051809 0.010728 -0.001786 -0.999941
-0.300735 -2.252340 -0.051809 0.986425 -0.164188 0.002702
-0.200078 -1.647603 -0.051809 0.986425 -0.164188 0.002702
-0.200334 -1.647560 0.044271 0.986425 -0.164188 0.002702
-0.300991 -2.252297 0.044271 0.986425 -0.164188 0.002702
-0.300991 -2.252297 0.044271 -0.010728 0.001786 0.999941
-0.200334 -1.647560 0.044271 -0.010728 0.001786 0.999941
-0.294026 -1.631965 0.043238 -0.010728 0.001786 0.999941
-0.394683 -2.236703 0.043238 -0.010728 0.001786 0.999941
-0.394683 -2.236703 0.043238 -0.986425 0.164188 -0.002701
-0.294026 -1.631965 0.043238 -0.986425 0.164188 -0.002701
-0.293770 -1.632008 -0.052842 -0.986425 0.164188 -0.002701
-0.394427 -2.236745 -0.052842 -0.986425 0.164188 -0.002701
-0.300735 -2.252340 -0.051809 -0.164185 -0.986430 -0.000002
-0.300991 -2.252297 0.044271 -0.164185 -0.986430 -0.000002
-0.394683 -2.236703 0.043238 -0.164185 -0.986430 -0.000002
-0.394427 -2.236745 -0.052842 -0.164185 -0.986430 -0.000002
-0.200334 -1.647560 0.044271 0.164190 0.986429 -0.000004
-0.200078 -1.647603 -0.051809 0.164190 0.986429 -0.000004
-0.293770 -1.632008 -0.052842 0.164190 0.986429 -0.000004
-0.294026 -1.631965 0.043238 0.164190 0.986429 -0.000004
0.135031 -2.319602 0.099990 0.000000 -0.066038 0.997817
0.195752 -1.640210 0.144954 0.000000 -0.066038 0.997817
-0.195752 -1.640210 0.144954 0.000000 -0.066038 0.997817
-0.135031 -2.319602 0.099990 0.000000 -0.066038 0.997817
-0.135031 -2.319602 0.099990 -0.996030 -0.089021 0.000000
-0.195752 -1.640210 0.144954 -0.996030 -0.089021 0.000000
-0.195752 -1.640210 -0.144954 -0.996030 -0.089021 0.000000
-0.135031 -2.319602 -0.099990 -0.996030 -0.089021 0.000000
-0.135031 -2.319602 -0.099990 0.000000 -0.066038 -0.997817
-0.195752 -1.640210 -0.144954 0.000000 -0.066038 -0.997817
0.195752 -1.640210 -0.144954 0.000000 -0.066038 -0.997817
0.135031 -2.319602 -0.099990 0.000000 -0.066038 -0.997817
0.135031 -2.319602 -0.099990 0.996030 -0.089021 0.000000
0.195752 -1.640210 -0.144954 0.996030 -0.089021 0.000000
0.195752 -1.640210 0.144954 0.996030 -0.089021 0.000000
0.135031 -2.319602 0.099990 0.996030 -0.089021 0.000000
-0.135031 -2.319602 0.099990 -0.000000 -1.000000 0.000000
-0.135031 -2.319602 -0.099990 -0.000000 -1.000000 0.000000
0.135031 -2.319602 -0.099990 -0.000000 -1.000000 0.000000
0.135031 -2.319602 0.099990 -0.000000 -1.000000 0.000000
-0.195752 -1.640210 -0.144954 0.000000 1.000000 0.000000
-0.195752 -1.640210 0.144954 0.000000 1.000000 0.000000
0.195752 -1.640210 0.144954 0.000000 1.000000 0.000000
0.195752 -1.640210 -0.144954 0.000000 1.000000 0.000000
0.280140 -2.993114 0.044525 0.010728 0.001786 0.999941
0.151813 -2.222134 0.044525 0.010728 0.001786 0.999941
0.032365 -2.242016 0.045842 0.010728 0.001786 0.999941
0.160693 -3.012994 0.045842 0.010728 0.001786 0.999941
0.160693 -3.012994 0.045842 -0.986425 -0.164188 0.002702
0.032365 -2.242016 0.045842 -0.986425 -0.164188 0.002702
0.032039 -2.242070 -0.076650 -0.986425 -0.164188 0.002702
0.160366 -3.013049 -0.076650 -0.986425 -0.164188 0.002702
0.160366 -3.013049 -0.076650 -0.010728 -0.001786 -0.999941
0.032039 -2.242070 -0.076650 -0.010728 -0.001786 -0.999941
0.151486 -2.222189 -0.077967 -0.010728 -0.001786 -0.999941
0.279813 -2.993167 -0.077967 -0.010728 -0.001786 -0.999941
0.279813 -2.993167 -0.077967 0.986425 0.164187 -0.002706
0.151486 -2.222189 -0.077967 0.986425 0.164187 -0.002706
0.151813 -2.222134 0.044525 0.986425 0.164187 -0.002706
0.280140 -2.993114 0.044525 0.986425 0.164187 -0.002706
0.160693 -3.012994 0.045842 0.164186 -0.986429 0.000000
0.160366 -3.013049 -0.076650 0.164186 -0.986429 0.000000
0.279813 -2.993167 -0.077967 0.164186 -0.986429 0.000000
0.280140 -2.993114 0.044525 0.164186 -0.986429 0.000000
0.032039 -2.242070 -0.076650 -0.164187 0.986429 -0.000002
0.032365 -2.242016 0.045842 -0.164187 0.986429 -0.000002
0.151813 -2.222134 0.044525 -0.164187 0.986429 -0.000002
0.151486 -2.222189 -0.077967 -0.164187 0.986429 -0.000002
-0.279813 -2.993167 -0.077967 0.010728 -0.001786 -0.999941
-0.151486 -2.222189 -0.077967 0.010728 -0.001786 -0.999941
-0.032039 -2.242070 -0.076650 0.010728 -0.001786 -0.999941
-0.160366 -3.013049 -0.076650 0.010728 -0.001786 -0.999941
-0.160366 -3.013049 -0.076650 0.986425 -0.164188 0.002702
-0.032039 -2.242070 -0.076650 0.986425 -0.164188 0.002702
-0.032365 -2.242016 0.045842 0.986425 -0.164188 0.002702
-0.160693 -3.012994 0.045842 0.986425 -0.164188 0.002702
-0.160693 -3.012994 0.045842 -0.010728 0.001786 0.999941
-0.032365 -2.242016 0.045842 -0.010728 0.001786 0.999941
-0.151813 -2.222134 0.044525 -0.010728 0.001786 0.999941
-0.280140 -2.993114 0.044525 -0.010728 0.001786 0.999941
-0.280140 -2.993114 0.044525 -0.986425 0.164187 -0.002706
-0.151813 -2.222134 0.044525 -0.986425 0.164187 -0.002706
-0.151486 -2.222189 -0.077967 -0.986425 0.164187 -0.002706
-0.279813 -2.993167 -0.077967 -0.986425 0.164187 -0.002706
-0.160366 -3.013049 -0.076650 -0.164186 -0.986429 0.000000
-0.160693 -3.012994 0.045842 -0.164186 -0.986429 0.000000
-0.280140 -2.993114 0.044525 -0.164186 -0.986429 0.000000
-0.279813 -2.993167 -0.077967 -0.164186 -0.986429 0.000000
-0.032365 -2.242016 0.045842 0.164187 0.986429 -0.000002
-0.032039 -2.242070 -0.076650 0.164187 0.986429 -0.000002
-0.151486 -2.222189 -0.077967 0.164187 0.986429 -0.000002
-0.151813 -2.222134 0.044525 0.164187 0.986429 -0.000002
-0.279813 -2.993167 -0.077967 0.010728 -0.001786 -0.999941
-0.151486 -2.222189 -0.077967 0.010728 -0.001786 -0.999941
-0.032039 -2.242070 -0.076650 0.010728 -0.001786 -0.999941
-0.160366 -3.013049 -0.076650 0.010728 -0.001786 -0.999941
-0.160366 -3.013049 -0.076650 0.986425 -0.164188 0.002702
-0.032039 -2.242070 -0.076650 0.986425 -0.164188 0.002702
-0.032365 -2.242016 0.045842 0.986425 -0.164188 0.002702
-0.160693 -3.012994 0.045842 0.986425 -0.164188 0.002702
-0.160693 -3.012994 0.045842 -0.010728 0.001786 0.999941
-0.032365 -2.242016 0.045842 -0.010728 0.001786 0.999941
-0.151813 -2.222134 0.044525 -0.010728 0.001786 0.999941
-0.280140 -2.993114 0.044525 -0.010728 0.001786 0.999941
-0.280140 -2.993114 0.044525 -0.986425 0.164187 -0.002706
-0.151813 -2.222134 0.044525 -0.986425 0.164187 -0.002706
-0.151486 -2.222189 -0.077967 -0.986425 0.164187 -0.002706
-0.279813 -2.993167 -0.077967 -0.986425 0.164187 -0.002706
-0.160366 -3.013049 -0.076650 -0.164186 -0.986429 0.000000
-0.160693 -3.012994 0.045842 -0.164186 -0.986429 0.000000
-0.280140 -2.993114 0.044525 -0.164186 -0.986429 0.000000
-0.279813 -2.993167 -0.077967 -0.164186 -0.986429 0.000000
-0.032365 -2.242016 0.045842 0.164187 0.986429 -0.000002
-0.032039 -2.242070 -0.076650 0.164187 0.986429 -0.000002
-0.151486 -2.222189 -0.077967 0.164187 0.986429 -0.000002
-0.151813 -2.222134 0.044525 0.164187 0.986429 -0.000002
4 0 1 2 3
4 4 5 6 7
4 8 9 10 11
5 12 13 14 15 16
4 17 18 19 20
4 21 22 23 24
4 25 26 27 28
4 29 30 31 32
4 33 17 20 34
4 35 36 37 38
4 29 39 40 30
4 4 7 41 42
4 43 44 45 46
4 47 48 49 50
4 51 52 53 54
4 55 56 57 58
4 59 60 61 62
4 63 64 56 55
4 65 66 67 68
4 69 70 71 72
4 73 74 75 76
4 77 78 79 80
5 81 82 83 84 85
4 8 11 86 87
4 88 89 90 91
4 92 93 49 48
3 94 95 96
4 97 98 99 100
3 101 102 103
3 104 105 106
4 107 108 109 110
3 111 112 113
3 114 115 116
4 117 118 119 120
3 121 122 123
3 124 125 126
4 127 128 129 130
3 131 132 133
3 134 135 136
4 137 138 139 140
3 141 142 143
3 144 145 146
4 147 148 149 150
3 151 152 153
3 154 155 156
4 157 158 159 160
3 161 162 163
3 164 165 166
4 167 168 169 170
3 171 172 173
3 174 175 176
4 177 178 179 180
3 181 182 183
4 184 185 186 187
4 188 189 190 191
4 192 193 194 195
4 196 197 198 199
4 200 201 202 203
4 204 205 206 207
4 208 209 210 211
4 212 213 214 215
4 216 217 218 219
4 220 221 222 223
4 224 225 226 227
4 228 229 230 231
4 232 233 234 235
4 236 237 238 239
4 240 241 242 243
4 244 245 246 247
4 248 249 250 251
4 252 253 254 255
4 256 257 258 259
4 260 261 262 263
4 264 265 266 267
4 268 269 270 271
4 272 273 274 275
4 276 277 278 279
4 280 281 282 283
4 284 285 286 287
4 288 289 290 291
4 292 293 294 295
4 296 297 298 299
4 300 301 302 303
4 304 305 306 307
4 308 309 310 311
4 312 313 314 315
4 316 317 318 319
4 320 321 322 323
4 324 325 326 327
4 328 329 330 331
4 332 333 334 335
4 336 337 338 339
4 340 341 342 343
4 344 345 346 347
4 348 349 350 351
